<svg width="21" height="11" viewBox="0 0 21 11" fill="none" xmlns="http://www.w3.org/2000/svg">
<path d="M1.68725 0.526564C1.59178 0.436345 1.47947 0.365816 1.35674 0.319C1.23401 0.272184 1.10327 0.25 0.971964 0.253715C0.840662 0.257429 0.711378 0.286969 0.591492 0.340648C0.471606 0.394326 0.363467 0.471092 0.273249 0.566564C0.183031 0.662035 0.1125 0.774342 0.0656848 0.89707C0.0188693 1.0198 -0.00331476 1.15055 0.000399588 1.28185C0.00411394 1.41315 0.0336538 1.54244 0.0873325 1.66232C0.141011 1.78221 0.217778 1.89035 0.313249 1.98056L9.31325 10.4806C9.49892 10.6561 9.74474 10.7539 10.0002 10.7539C10.2558 10.7539 10.5016 10.6561 10.6872 10.4806L19.6882 1.98056C19.7858 1.89094 19.8646 1.78283 19.92 1.6625C19.9754 1.54217 20.0064 1.41203 20.0111 1.27964C20.0158 1.14724 19.9942 1.01523 19.9474 0.891276C19.9007 0.76732 19.8298 0.653886 19.7388 0.557566C19.6479 0.461246 19.5387 0.383957 19.4176 0.330191C19.2965 0.276425 19.166 0.247253 19.0335 0.244368C18.9011 0.241483 18.7694 0.264944 18.6461 0.313388C18.5228 0.361832 18.4103 0.434293 18.3152 0.526563L10.0002 8.37856L1.68725 0.526564Z" fill="#2C44FC"/>
</svg>
