<svg width="213" height="48" viewBox="0 0 213 48" fill="none" xmlns="http://www.w3.org/2000/svg">
<path d="M106.706 26.1645C102.412 26.1645 98.892 29.2134 98.892 33.3953C98.892 37.5772 102.39 40.6261 106.706 40.6261C111.023 40.6261 114.521 37.5566 114.521 33.3953C114.521 29.234 111.023 26.1645 106.706 26.1645ZM106.706 37.7832C104.36 37.7832 102.323 35.9704 102.323 33.3953C102.323 30.8202 104.36 29.0074 106.706 29.0074C109.053 29.0074 111.089 30.779 111.089 33.3953C111.089 36.0116 109.053 37.7832 106.706 37.7832ZM89.6831 26.1645C85.3885 26.1645 81.8687 29.2134 81.8687 33.3953C81.8687 37.5772 85.3664 40.6261 89.6831 40.6261C93.9998 40.6261 97.4974 37.5566 97.4974 33.3953C97.4974 29.234 93.9998 26.1645 89.6831 26.1645ZM89.6831 37.7832C87.3366 37.7832 85.2999 35.9704 85.2999 33.3953C85.2999 30.8202 87.3366 29.0074 89.6831 29.0074C92.0296 29.0074 94.0662 30.779 94.0662 33.3953C94.0662 36.0116 92.0296 37.7832 89.6831 37.7832ZM69.4278 28.3894V31.4588H77.3307C77.0872 33.1893 76.4673 34.4459 75.5376 35.3318C74.3864 36.403 72.5934 37.5772 69.4499 37.5772C64.5798 37.5772 60.7944 33.9309 60.7944 29.3988C60.7944 24.8667 64.6019 21.2204 69.4499 21.2204C72.0621 21.2204 73.988 22.1886 75.4047 23.404L77.7291 21.241C75.7589 19.4899 73.1246 18.1509 69.4499 18.1509C62.7867 18.1509 57.186 23.198 57.186 29.3988C57.186 35.5996 62.7867 40.6467 69.4499 40.6467C73.0361 40.6467 75.7589 39.5549 77.8841 37.4948C80.0535 35.476 80.7397 32.6125 80.7397 30.3052C80.7397 29.5842 80.6733 28.925 80.5626 28.3894H69.4499H69.4278ZM152.264 30.779C151.622 29.1516 149.652 26.1645 145.601 26.1645C141.55 26.1645 138.274 29.0898 138.274 33.3953C138.274 37.4536 141.572 40.6261 145.999 40.6261C149.563 40.6261 151.622 38.6072 152.486 37.4124L149.829 35.7644C148.944 36.9798 147.748 37.7626 145.999 37.7626C144.251 37.7626 143.033 37.021 142.236 35.579L152.64 31.5825L152.286 30.7584L152.264 30.779ZM141.661 33.1893C141.572 30.3876 143.985 28.9662 145.734 28.9662C147.084 28.9662 148.235 29.6048 148.612 30.5112L141.661 33.1893ZM133.204 40.2141H136.613V18.9337H133.204V40.2141ZM127.604 27.7919H127.493C126.718 26.9473 125.257 26.1645 123.398 26.1645C119.502 26.1645 115.937 29.337 115.937 33.4365C115.937 37.536 119.502 40.6467 123.398 40.6467C125.257 40.6467 126.718 39.8845 127.493 38.9987H127.604V40.0493C127.604 42.8098 126.01 44.293 123.442 44.293C121.361 44.293 120.055 42.8922 119.524 41.7179L116.557 42.8716C117.421 44.7874 119.679 47.1565 123.442 47.1565C127.449 47.1565 130.836 44.9728 130.836 39.6167V26.6177H127.604V27.7919ZM123.685 37.8038C121.339 37.8038 119.347 35.9704 119.347 33.4365C119.347 30.9026 121.317 29.028 123.685 29.028C126.054 29.028 127.847 30.882 127.847 33.4365C127.847 35.991 126.032 37.8038 123.685 37.8038ZM168.269 18.9543H160.101V40.2347H163.51V32.1799H168.269C172.055 32.1799 175.774 29.6254 175.774 25.5671C175.774 21.5088 172.055 18.9543 168.269 18.9543ZM168.358 29.2134H163.51V21.9208H168.358C170.903 21.9208 172.364 23.8778 172.364 25.5671C172.364 27.2563 170.926 29.2134 168.358 29.2134ZM189.432 26.1645C186.953 26.1645 184.407 27.1739 183.344 29.4194L186.377 30.5936C187.019 29.4194 188.237 29.028 189.498 29.028C191.269 29.028 193.063 30.0168 193.085 31.7679V31.9945C192.465 31.6649 191.137 31.1704 189.521 31.1704C186.266 31.1704 182.924 32.8391 182.924 35.9498C182.924 38.7926 185.602 40.6261 188.591 40.6261C190.893 40.6261 192.155 39.6785 192.952 38.5454H193.063V40.1935H196.361V32.0357C196.361 28.2658 193.328 26.1439 189.41 26.1439L189.432 26.1645ZM189.011 37.8244C187.905 37.8244 186.333 37.3094 186.333 36.0116C186.333 34.3635 188.281 33.7455 189.941 33.7455C191.447 33.7455 192.155 34.0545 193.063 34.4665C192.797 36.4442 190.982 37.8244 189.011 37.8244ZM208.359 26.6383L204.441 35.8674H204.33L200.279 26.6383H196.604L202.692 39.5343L199.217 46.7033H202.781L212.167 26.6383H208.381H208.359ZM177.633 40.2553H181.042V18.9337H177.633V40.2141V40.2553Z" fill="#F2F2F2" fill-opacity="0.8"/>
<path d="M65.9521 3.19508C65.2658 2.63886 64.3582 2.26805 63.3621 2.26805C61.1041 2.26805 59.3774 3.9985 59.3774 6.12036C59.3774 8.24222 61.1041 9.95206 63.3621 9.95206C65.288 9.95206 66.7047 8.90143 66.7932 7.25339H63.7384V6.07916H68.4535C68.4535 9.60185 66.4391 11.2499 63.3621 11.2499C60.285 11.2499 57.9385 8.96324 57.9385 6.12036C57.9385 3.27748 60.3072 0.970215 63.3621 0.970215C64.7788 0.970215 66.0628 1.48523 66.9925 2.28865L65.9521 3.19508Z" fill="#F2F2F2" fill-opacity="0.8"/>
<path d="M76.7993 1.09424V2.35087H71.8849V5.54396H76.1794V6.8006H71.8849V9.82888H76.9542V11.0855H70.4238V1.09424H76.7993Z" fill="#F2F2F2" fill-opacity="0.8"/>
<path d="M86.2076 1.09424V2.37147H82.9535V11.1061H81.4924V2.37147H78.2383V1.09424H86.2297H86.2076Z" fill="#F2F2F2" fill-opacity="0.8"/>
<path d="M93.1807 1.09424V11.1061H91.7197V1.09424H93.1807Z" fill="#F2F2F2" fill-opacity="0.8"/>
<path d="M103.076 1.09424V2.37147H99.8216V11.1061H98.3606V2.37147H95.1064V1.09424H103.098H103.076Z" fill="#F2F2F2" fill-opacity="0.8"/>
<path d="M113.325 0.991211C116.402 0.991211 118.793 3.27787 118.793 6.14135C118.793 9.00483 116.402 11.2709 113.325 11.2709C110.248 11.2709 107.902 8.98423 107.902 6.14135C107.902 3.29847 110.271 0.991211 113.325 0.991211ZM113.325 9.95246C115.583 9.95246 117.332 8.26321 117.332 6.14135C117.332 4.01949 115.606 2.30965 113.325 2.30965C111.045 2.30965 109.341 4.01949 109.341 6.14135C109.341 8.26321 111.067 9.95246 113.325 9.95246Z" fill="#F2F2F2" fill-opacity="0.8"/>
<path d="M127.382 11.1061L122.49 3.56631V11.1061H121.029V1.09424H122.468L127.316 8.57225V1.09424H128.777V11.1061H127.382Z" fill="#F2F2F2" fill-opacity="0.8"/>
<path d="M1.29039 2.80469C1.04688 3.2167 0.914062 3.75231 0.914062 4.39093V41.987C0.914062 42.6256 1.04688 43.1406 1.29039 43.5732L23.1838 23.1993L1.29039 2.82529V2.80469Z" fill="#F2F2F2" fill-opacity="0.8"/>
<path d="M31.7728 29.7297L40.3398 25.1976C41.4023 24.6414 41.9779 23.9203 41.9779 23.1993C41.9779 22.4783 41.4023 21.7573 40.3398 21.2011L31.7728 16.6689L24.7554 23.2199L31.7728 29.7503V29.7297Z" fill="#F2F2F2" fill-opacity="0.8"/>
<path d="M2.22021 44.3963C2.88432 44.6435 3.74767 44.5405 4.7217 44.0255L30.5998 30.3467L23.9587 24.1665L2.22021 44.3963Z" fill="#F2F2F2" fill-opacity="0.8"/>
<path d="M30.5998 16.0294L4.7217 2.35065C3.76981 1.83563 2.90646 1.73263 2.22021 1.97984L23.9587 22.2096L30.5998 16.0294Z" fill="#F2F2F2" fill-opacity="0.8"/>
</svg>
