<svg xmlns="http://www.w3.org/2000/svg" fill="none" viewBox="0 0 197 41"><path d="M18.348 4.125c.066.289.11.66.11 1.074-1.638.662-2.257 1.137-2.235 3.39v1.384l-1.107.207V8.588c0-3.327 1.35-3.843 3.232-4.463Zm3.254-.703c.066.33.133.682.177 1.054 2.922-.393 2.856.744 2.856 3.079v.868l1.107-.207v-.661c0-3.637-.598-4.608-4.14-4.133Zm-11.49 7.708V6.336C10.07 3.36 11.73 2.45 14.763 1.79c4.56-.992 4.848 1.756 4.848 3.492v4.05l1.107-.206V5.365c0-3.307-1.107-5.787-6.199-4.712-2.745.579-5.534 1.24-5.534 5.58v5.104l1.107-.207h.022Zm13.372 12.585h-8.59v-5.807l8.59-1.178v6.985Zm0 8.204-8.59-1.178v-6.24h8.59v7.418Zm-9.453-8.204H7.213v-4.856l6.818-.91v5.766Zm0 6.985-6.818-.889v-5.29h6.818V30.7ZM31.342 8.423.616 14.168v20.85l30.726 5.746 6.132-2.088V10.51l-6.132-2.087Z" fill="#F2F2F2" fill-opacity=".8"/><path d="M9.484 10.735V6.232c0-2.046.648-3.133 1.538-3.8.937-.702 2.206-.996 3.6-1.29 2.483-.524 3.82-.143 4.554.58.76.748 1.04 2.012 1.04 3.643V8.71l-.106.02V5.282c0-.86-.06-2.154-.828-3.087-.815-.99-2.264-1.408-4.627-.894-1.522.332-2.807.744-3.699 1.516-.928.803-1.366 1.932-1.343 3.522v4.372l-.129.024ZM23.984 24v-7.843l-.568.078-8.59 1.178-.295.04v-.075l-.566.076-6.818.91-.434.057v11.83l.435.056 6.819.889.564.073v-.073l.296.04 8.589 1.178.568.078V24ZM15.723 9.558l-.107.02v-.99c0-1.604.326-2.417.778-2.908.373-.406.877-.648 1.548-.889.003.026.004.052.006.079-.672.287-1.243.603-1.632 1.13-.457.618-.604 1.438-.593 2.59v.968Zm9.412-1.737v-.423c0-.513 0-.995-.038-1.41-.042-.456-.134-.904-.377-1.271-.469-.709-1.318-.893-2.515-.791a12.114 12.114 0 0 0-.012-.07c.612-.06 1.095-.061 1.478-.005.474.069.764.222.963.436.206.222.365.565.467 1.113.103.548.14 1.253.14 2.155v.246l-.106.02ZM1.116 14.583l30.19-5.644 5.668 1.93v27.45l-5.669 1.929-30.189-5.644V14.583Z" stroke="#F2F2F2" stroke-opacity=".8"/><path d="M18.348 4.125c.066.289.11.66.11 1.074-1.638.662-2.257 1.137-2.235 3.39v1.384l-1.107.207V8.588c0-3.327 1.35-3.843 3.232-4.463Zm3.254-.703c.066.33.133.682.177 1.054 2.922-.393 2.856.744 2.856 3.079v.868l1.107-.207v-.661c0-3.637-.598-4.608-4.14-4.133Zm-11.49 7.708V6.336C10.07 3.36 11.73 2.45 14.763 1.79c4.56-.992 4.848 1.756 4.848 3.492v4.05l1.107-.206V5.365c0-3.307-1.107-5.787-6.199-4.712-2.745.579-5.534 1.24-5.534 5.58v5.104l1.107-.207h.022Zm13.372 12.585h-8.59v-5.807l8.59-1.178v6.985Zm0 8.204-8.59-1.178v-6.24h8.59v7.418Zm-9.453-8.204H7.213v-4.856l6.818-.91v5.766Zm0 6.985-6.818-.889v-5.29h6.818V30.7ZM31.342 8.423.616 14.168v20.85l30.726 5.746 6.132-2.088V10.51l-6.132-2.087Z" fill="#F2F2F2" fill-opacity=".8"/><mask fill="#fff" id="a"><path d="M69.816 21.297 65.1 36.919h-2.302l-3.454-11.427a6.095 6.095 0 0 1-.243-1.57h-.045a11.384 11.384 0 0 1-.31 1.55l-3.475 11.447h-2.28L48.1 21.297h2.147l3.564 11.985a8.16 8.16 0 0 1 .288 1.571h.044c.044-.434.155-.971.354-1.57l3.72-11.986h1.88l3.543 12.068a9.4 9.4 0 0 1 .288 1.447h.044c.044-.372.155-.868.31-1.488l3.409-12.027h2.125Zm3.785.806c0 .33-.132.62-.376.826a1.262 1.262 0 0 1-.885.331 1.35 1.35 0 0 1-.886-.31c-.243-.227-.354-.496-.354-.847 0-.31.133-.579.354-.806a1.25 1.25 0 0 1 .886-.352c.354 0 .664.125.907.331.244.227.354.496.354.827Zm-.332 14.816h-1.904V25.76h1.904v11.16Zm12.818 0h-1.904v-6.364c0-2.356-.93-3.534-2.767-3.534-.952 0-1.727.33-2.369.992-.642.661-.952 1.508-.952 2.542v6.364h-1.904V25.76h1.904v1.86h.044c.908-1.405 2.192-2.128 3.919-2.128 1.306 0 2.324.392 3.01 1.198.687.806 1.04 1.922 1.04 3.39v6.819l-.021.02Zm13.282 0h-1.904v-1.9h-.044c-.886 1.446-2.258 2.17-4.096 2.17-1.505 0-2.7-.517-3.608-1.51-.885-1.012-1.328-2.355-1.328-4.05 0-1.839.487-3.327 1.483-4.443.996-1.116 2.324-1.674 3.985-1.674 1.66 0 2.833.6 3.586 1.798h.044v-6.902h1.904V36.92h-.022Zm-1.904-5.042v-1.632c0-.93-.332-1.695-.974-2.294-.664-.6-1.461-.91-2.39-.91-1.152 0-2.06.393-2.746 1.2-.686.785-1.018 1.9-1.018 3.306 0 1.28.332 2.293.952 3.037.642.744 1.505 1.116 2.59 1.116 1.084 0 1.904-.351 2.59-1.074.686-.703 1.018-1.612 1.018-2.728m16.049-.579c0 1.777-.531 3.203-1.616 4.278-1.084 1.075-2.523 1.612-4.338 1.612-1.816 0-3.166-.517-4.229-1.57-1.062-1.055-1.571-2.44-1.571-4.134 0-1.839.531-3.306 1.616-4.38 1.084-1.075 2.568-1.613 4.471-1.613 1.771 0 3.166.517 4.162 1.55.996 1.034 1.505 2.46 1.505 4.257Zm-1.97.062c0-1.405-.332-2.48-.996-3.223-.664-.744-1.616-1.116-2.856-1.116-1.239 0-2.191.392-2.922 1.157-.708.764-1.062 1.84-1.062 3.244 0 1.405.354 2.377 1.084 3.12.709.745 1.683 1.137 2.9 1.137 1.218 0 2.192-.372 2.856-1.116.664-.744.996-1.798.996-3.182m19.37-5.6L127.35 36.96h-1.993l-2.457-7.977a4.076 4.076 0 0 1-.177-1.033h-.044c-.022.248-.111.578-.244.992l-2.678 7.997h-1.904l-3.608-11.159h2.014l2.457 8.39c.067.29.133.62.155 1.013h.089c0-.269.089-.62.221-1.034l2.745-8.369h1.749l2.479 8.41c.067.29.133.62.155 1.013h.089c0-.351.088-.682.199-1.012l2.435-8.41h1.882l.022.02Zm8.146 8.162c0 .972-.398 1.757-1.195 2.356-.797.6-1.86.91-3.188.91-1.129 0-2.125-.228-2.966-.682v-1.922c.93.702 1.97 1.074 3.099 1.074 1.505 0 2.28-.516 2.28-1.55a1.37 1.37 0 0 0-.443-1.033c-.287-.268-.974-.62-2.014-1.074-1.063-.414-1.793-.868-2.236-1.364-.443-.476-.642-1.116-.642-1.922 0-.93.399-1.695 1.196-2.315.797-.62 1.793-.93 3.01-.93.952 0 1.793.166 2.546.517v1.798c-.775-.537-1.682-.806-2.701-.806-.642 0-1.129.145-1.527.434-.377.29-.576.661-.576 1.116 0 .496.155.868.443 1.136.288.27.908.579 1.837.93 1.129.455 1.926.93 2.391 1.426.465.496.686 1.116.686 1.86"/></mask><path d="M69.816 21.297 65.1 36.919h-2.302l-3.454-11.427a6.095 6.095 0 0 1-.243-1.57h-.045a11.384 11.384 0 0 1-.31 1.55l-3.475 11.447h-2.28L48.1 21.297h2.147l3.564 11.985a8.16 8.16 0 0 1 .288 1.571h.044c.044-.434.155-.971.354-1.57l3.72-11.986h1.88l3.543 12.068a9.4 9.4 0 0 1 .288 1.447h.044c.044-.372.155-.868.31-1.488l3.409-12.027h2.125Zm3.785.806c0 .33-.132.62-.376.826a1.262 1.262 0 0 1-.885.331 1.35 1.35 0 0 1-.886-.31c-.243-.227-.354-.496-.354-.847 0-.31.133-.579.354-.806a1.25 1.25 0 0 1 .886-.352c.354 0 .664.125.907.331.244.227.354.496.354.827Zm-.332 14.816h-1.904V25.76h1.904v11.16Zm12.818 0h-1.904v-6.364c0-2.356-.93-3.534-2.767-3.534-.952 0-1.727.33-2.369.992-.642.661-.952 1.508-.952 2.542v6.364h-1.904V25.76h1.904v1.86h.044c.908-1.405 2.192-2.128 3.919-2.128 1.306 0 2.324.392 3.01 1.198.687.806 1.04 1.922 1.04 3.39v6.819l-.021.02Zm13.282 0h-1.904v-1.9h-.044c-.886 1.446-2.258 2.17-4.096 2.17-1.505 0-2.7-.517-3.608-1.51-.885-1.012-1.328-2.355-1.328-4.05 0-1.839.487-3.327 1.483-4.443.996-1.116 2.324-1.674 3.985-1.674 1.66 0 2.833.6 3.586 1.798h.044v-6.902h1.904V36.92h-.022Zm-1.904-5.042v-1.632c0-.93-.332-1.695-.974-2.294-.664-.6-1.461-.91-2.39-.91-1.152 0-2.06.393-2.746 1.2-.686.785-1.018 1.9-1.018 3.306 0 1.28.332 2.293.952 3.037.642.744 1.505 1.116 2.59 1.116 1.084 0 1.904-.351 2.59-1.074.686-.703 1.018-1.612 1.018-2.728m16.049-.579c0 1.777-.531 3.203-1.616 4.278-1.084 1.075-2.523 1.612-4.338 1.612-1.816 0-3.166-.517-4.229-1.57-1.062-1.055-1.571-2.44-1.571-4.134 0-1.839.531-3.306 1.616-4.38 1.084-1.075 2.568-1.613 4.471-1.613 1.771 0 3.166.517 4.162 1.55.996 1.034 1.505 2.46 1.505 4.257Zm-1.97.062c0-1.405-.332-2.48-.996-3.223-.664-.744-1.616-1.116-2.856-1.116-1.239 0-2.191.392-2.922 1.157-.708.764-1.062 1.84-1.062 3.244 0 1.405.354 2.377 1.084 3.12.709.745 1.683 1.137 2.9 1.137 1.218 0 2.192-.372 2.856-1.116.664-.744.996-1.798.996-3.182m19.37-5.6L127.35 36.96h-1.993l-2.457-7.977a4.076 4.076 0 0 1-.177-1.033h-.044c-.022.248-.111.578-.244.992l-2.678 7.997h-1.904l-3.608-11.159h2.014l2.457 8.39c.067.29.133.62.155 1.013h.089c0-.269.089-.62.221-1.034l2.745-8.369h1.749l2.479 8.41c.067.29.133.62.155 1.013h.089c0-.351.088-.682.199-1.012l2.435-8.41h1.882l.022.02Zm8.146 8.162c0 .972-.398 1.757-1.195 2.356-.797.6-1.86.91-3.188.91-1.129 0-2.125-.228-2.966-.682v-1.922c.93.702 1.97 1.074 3.099 1.074 1.505 0 2.28-.516 2.28-1.55a1.37 1.37 0 0 0-.443-1.033c-.287-.268-.974-.62-2.014-1.074-1.063-.414-1.793-.868-2.236-1.364-.443-.476-.642-1.116-.642-1.922 0-.93.399-1.695 1.196-2.315.797-.62 1.793-.93 3.01-.93.952 0 1.793.166 2.546.517v1.798c-.775-.537-1.682-.806-2.701-.806-.642 0-1.129.145-1.527.434-.377.29-.576.661-.576 1.116 0 .496.155.868.443 1.136.288.27.908.579 1.837.93 1.129.455 1.926.93 2.391 1.426.465.496.686 1.116.686 1.86" fill="#F2F2F2" fill-opacity=".8"/><path d="m69.816 21.297 1.915.578.778-2.578h-2.693v2ZM65.1 36.919v2h1.485l.43-1.422-1.915-.578Zm-2.302 0-1.915.579.43 1.422h1.485v-2Zm-3.454-11.427 1.915-.579-.002-.007-1.913.586Zm-.243-1.57 1.998-.072-.069-1.929H59.1v2Zm-.045 0v-2H57.29l-.217 1.754 1.985.245Zm-.31 1.55 1.914.58.01-.032.008-.032-1.931-.517Zm-3.475 11.447v2h1.483l.43-1.418-1.913-.581Zm-2.28 0-1.909.598.44 1.402h1.469v-2ZM48.1 21.297v-2h-2.723l.814 2.598 1.909-.598Zm2.147 0 1.917-.57-.425-1.43h-1.492v2Zm3.564 11.985 1.922-.554-.003-.008-.002-.008-1.917.57Zm.288 1.571-1.993.17.157 1.83h1.836v-2Zm.044 0v2h1.806l.184-1.797-1.99-.203Zm.354-1.57 1.898.63.006-.019.006-.019-1.91-.593Zm3.72-11.986v-2h-1.474l-.437 1.407 1.91.593Zm1.88 0 1.92-.563-.422-1.437h-1.497v2Zm3.543 12.068 1.92-.56-.001-.003-1.92.563Zm.288 1.447-1.984.255.224 1.745h1.76v-2Zm.044 0v2h1.776l.21-1.764-1.986-.236Zm.31-1.488-1.924-.546-.009.03-.008.03 1.94.486Zm3.409-12.027v-2h-1.512l-.412 1.454 1.924.546Zm5.534 1.632-1.294-1.525-.036.031-.035.032 1.365 1.462Zm-1.77.021-1.366 1.462.035.032.036.03 1.294-1.524Zm0-1.653-1.366-1.462-.034.032-.034.034 1.433 1.396Zm1.792-.02 1.365-1.463-.035-.032-.036-.03-1.294 1.524Zm.022 15.642v2h2v-2h-2Zm-1.904 0h-2v2h2v-2Zm0-11.159v-2h-2v2h2Zm1.904 0h2v-2h-2v2Zm12.818 11.16v2h.787l.577-.538-1.364-1.462Zm-1.904 0h-2v2h2v-2Zm-6.088 0v2h2v-2h-2Zm-1.904 0h-2v2h2v-2Zm0-11.16v-2h-2v2h2Zm1.904 0h2v-2h-2v2Zm0 1.86h-2v2h2v-2Zm.044 0v2h1.09l.59-.915-1.68-1.085Zm7.97 9.279 1.364 1.462.636-.593v-.87h-2Zm11.356.02h-2v2h2v-2Zm0-1.9h2v-2h-2v2Zm-.044 0v-2H96.3l-.585.955 1.706 1.044Zm-7.704.66-1.505 1.317.014.017.016.017 1.475-1.35Zm7.726-8.369-1.694 1.064.588.936h1.106v-2Zm.044 0v2h2v-2h-2Zm0-6.902v-2h-2v2h2Zm1.904 0h2v-2h-2v2Zm0 16.511v2h2v-2h-2Zm-2.9-8.968 1.365-1.462-.013-.012-.012-.01-1.34 1.484Zm-5.136.29 1.506 1.315.009-.01.008-.01-1.523-1.296Zm-.066 6.343-1.537 1.28.011.014.012.013 1.514-1.307Zm5.18.042-1.431-1.398-.01.01-.01.011 1.45 1.377Zm8.323-6.427-1.446-1.382-.01.011-.011.012 1.467 1.359Zm.022 6.365 1.449-1.38-.011-.01-.011-.012-1.427 1.402Zm26.122-8.762 1.904.612.389-1.209-.929-.866-1.364 1.463ZM127.35 36.96v2h1.458l.446-1.388-1.904-.612Zm-1.993 0-1.911.589.435 1.41h1.476v-2Zm-2.457-7.977 1.912-.589-.006-.018-.006-.019-1.9.626Zm-.177-1.033 1.997-.107-.101-1.893h-1.896v2Zm-.044 0v-2h-1.829l-.163 1.822 1.992.178Zm-.244.992 1.897.635.004-.012.004-.011-1.905-.612Zm-2.678 7.997v2h1.439l.457-1.365-1.896-.635Zm-1.904 0-1.903.616.448 1.384h1.455v-2Zm-3.608-11.159v-2h-2.749l.846 2.615 1.903-.615Zm2.014 0 1.92-.562-.421-1.438h-1.499v2Zm2.457 8.39 1.95-.447-.014-.058-.016-.057-1.92.562Zm.155 1.013-1.996.112.106 1.888h1.89v-2Zm.089 0v2h2v-2h-2Zm.221-1.034-1.9-.623-.004.011 1.904.612Zm2.745-8.369v-2h-1.449l-.451 1.377 1.9.623Zm1.749 0 1.919-.565-.423-1.435h-1.496v2Zm2.479 8.41 1.95-.447-.014-.06-.017-.058-1.919.566Zm.155 1.013-1.996.113.106 1.887h1.89v-2Zm.089 0v2h2v-2h-2Zm.199-1.012 1.897.635.013-.04.011-.04-1.921-.555Zm2.435-8.41v-2h-1.503l-.418 1.443 1.921.556Zm1.882 0 1.364-1.463-.576-.538h-.788v2Zm.819 10.765h-2v1.193l1.049.567.951-1.76Zm0-1.921 1.206-1.596-3.206-2.423v4.019h2Zm2.922-2.583.801-1.833-.038-.017-.038-.014-.725 1.864Zm-2.236-1.364 1.492-1.332-.014-.016-.014-.015-1.464 1.363Zm6.11-4.65h2v-1.274l-1.154-.538-.846 1.812Zm0 1.798-1.14 1.643 3.14 2.178v-3.821h-2Zm-4.228-.372-1.175-1.618-.022.016-.022.016 1.219 1.586Zm1.704 3.182.747-1.855-.02-.008-.02-.008-.707 1.871ZM67.901 20.72l-4.715 15.623 3.83 1.155 4.715-15.622-3.83-1.156Zm-2.8 14.2h-2.302v4H65.1v-4Zm-.388 1.422L61.26 24.913l-3.83 1.157 3.454 11.428 3.83-1.157Zm-3.455-11.435a4.12 4.12 0 0 1-.158-1.056l-3.997.143c.027.77.14 1.462.33 2.084l3.825-1.17Zm-2.156-2.985h-.045v4h.045v-4Zm-2.03 1.755a9.376 9.376 0 0 1-.257 1.278l3.864 1.034c.15-.561.283-1.171.363-1.821l-3.97-.491Zm-.238 1.214L53.358 36.34l3.828 1.162 3.475-11.449-3.827-1.162Zm-1.562 10.03h-2.28v4h2.28v-4Zm-.371 1.402L50.008 20.7l-3.817 1.195 4.892 15.623 3.818-1.195ZM48.1 23.297h2.147v-4H48.1v4Zm.23-1.43 3.564 11.985 3.834-1.14-3.564-11.985-3.834 1.14Zm3.56 11.97c.115.4.182.787.216 1.187l3.985-.342a10.097 10.097 0 0 0-.358-1.954l-3.844 1.109Zm2.209 3.016h.044v-4h-.044v4Zm2.034-1.797c.028-.273.104-.667.262-1.143L52.6 32.652a9.483 9.483 0 0 0-.446 1.998l3.98.406Zm.274-1.18 3.72-11.986-3.821-1.186-3.719 11.986 3.82 1.185Zm1.81-10.58h1.88v-4h-1.88v4Zm-.038-1.436 3.542 12.068 3.838-1.126-3.542-12.068-3.838 1.126Zm3.541 12.066c.095.325.166.691.224 1.14l3.967-.51a11.385 11.385 0 0 0-.352-1.752l-3.839 1.122Zm2.208 2.886h.044v-4h-.044v4Zm2.03-1.764c.027-.232.108-.616.264-1.24l-3.88-.97c-.155.617-.295 1.225-.356 1.737l3.972.473Zm.248-1.179 3.409-12.027-3.848-1.09-3.41 12.026 3.849 1.091Zm1.485-10.572h2.125v-4H67.69v4Zm3.91-1.194a.948.948 0 0 1 .33-.698l2.588 3.05a3.058 3.058 0 0 0 1.082-2.352h-4Zm.26-.636a.808.808 0 0 1 .272-.167.618.618 0 0 1 .207-.04v4c.757 0 1.58-.244 2.25-.869l-2.73-2.924Zm.479-.207c.086 0 .25.031.408.165l-2.588 3.05a3.35 3.35 0 0 0 2.18.785v-4Zm.479.228a.926.926 0 0 1 .28.615h-4c0 .86.31 1.674.99 2.309l2.73-2.924Zm.28.615a.96.96 0 0 1-.083.391.695.695 0 0 1-.13.198l-2.865-2.79c-.502.515-.921 1.261-.921 2.2h4Zm-.28.656a.705.705 0 0 1-.213.13.73.73 0 0 1-.266.056v-4a3.24 3.24 0 0 0-2.25.89l2.729 2.924Zm-.48.186a.616.616 0 0 1-.386-.145l2.588-3.049a3.383 3.383 0 0 0-2.201-.806v4Zm-.457-.207a.91.91 0 0 1-.208-.306.867.867 0 0 1-.073-.33h4c0-.859-.322-1.665-.989-2.288l-2.73 2.924ZM73.27 34.92h-1.904v4h1.904v-4Zm.096 2V25.76h-4v11.16h4Zm-2-9.159h1.904v-4h-1.904v4Zm-.096-2v11.16h4V25.76h-4Zm14.818 9.16h-1.904v4h1.904v-4Zm.096 2v-6.365h-4v6.364h4Zm0-6.365c0-1.388-.265-2.794-1.121-3.885-.928-1.183-2.269-1.649-3.646-1.649v4c.248 0 .374.04.423.06.037.017.054.03.076.058.068.087.268.447.268 1.416h4Zm-4.767-5.534c-1.487 0-2.782.546-3.804 1.599l2.87 2.786c.262-.27.517-.385.934-.385v-4Zm-3.804 1.599c-1.06 1.092-1.517 2.467-1.517 3.935h4c0-.6.163-.918.387-1.149l-2.87-2.786Zm-1.517 3.935v6.364h4v-6.364h-4Zm2 4.364h-1.904v4h1.904v-4Zm.096 2V25.76h-4v11.16h4Zm-2-9.159h1.904v-4h-1.904v4Zm-.096-2v1.86h4v-1.86h-4Zm2 3.86h.044v-4h-.044v4Zm1.725-.915c.543-.842 1.198-1.213 2.238-1.213v-4c-2.415 0-4.327 1.075-5.599 3.043l3.36 2.17Zm2.238-1.213c.896 0 1.282.254 1.488.495l3.045-2.593c-1.167-1.371-2.817-1.902-4.533-1.902v4Zm1.488.495c.288.339.563.94.563 2.092h4c0-1.782-.434-3.412-1.518-4.685l-3.045 2.593Zm.563 2.092v6.82h4v-6.82h-4Zm.636 5.357-.023.02 2.729 2.926.022-.02-2.728-2.926Zm14.624-.517h-1.904v4h1.904v-4Zm.096 2v-1.9h-4v1.9h4Zm-2-3.9h-.044v4h.044v-4Zm-1.75.955c-.484.792-1.173 1.214-2.39 1.214v4c2.459 0 4.515-1.024 5.801-3.126l-3.411-2.088Zm-2.39 1.214c-.99 0-1.634-.314-2.132-.858l-2.951 2.7c1.317 1.44 3.064 2.158 5.083 2.158v-4Zm-2.102-.825c-.493-.563-.834-1.397-.834-2.734h-4c0 2.053.544 3.905 1.823 5.367l3.01-2.633Zm-.834-2.734c0-1.48.384-2.449.975-3.11l-2.984-2.665c-1.402 1.57-1.991 3.576-1.991 5.775h4Zm.975-3.11c.572-.642 1.332-1.007 2.493-1.007v-4c-2.16 0-4.057.752-5.477 2.342l2.984 2.664Zm2.493-1.007c1.093 0 1.566.342 1.892.862l3.388-2.127c-1.18-1.877-3.053-2.735-5.28-2.735v4Zm3.586 1.798h.044v-4h-.044v4Zm2.044-2v-6.902h-4v6.902h4Zm-2-4.902h1.904v-4h-1.904v4Zm-.096-2V36.92h4V20.41h-4Zm2 14.511h-.022v4h.022v-4Zm.074-3.042v-1.632h-4v1.632h4Zm0-1.632c0-1.466-.549-2.766-1.61-3.756l-2.729 2.924c.224.209.339.438.339.832h4Zm-1.634-3.779a5.453 5.453 0 0 0-3.73-1.424v4c.439 0 .757.13 1.05.394l2.68-2.97Zm-3.73-1.424c-1.672 0-3.162.602-4.269 1.902l3.046 2.593c.266-.312.591-.495 1.222-.495v-4Zm-4.252 1.882c-1.112 1.273-1.512 2.927-1.512 4.623h4c0-1.115.264-1.693.524-1.99l-3.012-2.633Zm-1.512 4.623c0 1.628.427 3.131 1.415 4.318l3.073-2.56c-.25-.302-.488-.824-.488-1.758h-4Zm1.438 4.344c1.064 1.233 2.505 1.81 4.104 1.81v-4c-.571 0-.856-.169-1.076-.423l-3.028 2.613Zm4.104 1.81c1.605 0 2.958-.557 4.04-1.699l-2.901-2.753c-.29.305-.575.451-1.14.451v4Zm4.02-1.678c1.112-1.138 1.588-2.58 1.588-4.125h-4c0 .687-.188 1.063-.449 1.33l2.862 2.795Zm13.637-4.704c0 1.35-.386 2.226-1.023 2.857l2.815 2.842c1.533-1.519 2.208-3.493 2.208-5.699h-4Zm-1.023 2.857c-.643.637-1.541 1.033-2.931 1.033v4c2.239 0 4.22-.679 5.746-2.191l-2.815-2.842Zm-2.931 1.033c-1.386 0-2.196-.372-2.82-.99l-2.817 2.84c1.501 1.488 3.392 2.15 5.637 2.15v-4Zm-2.82-.99c-.617-.613-.98-1.45-.98-2.714h-4c0 2.125.655 4.057 2.163 5.553l2.817-2.84Zm-.98-2.714c0-1.436.402-2.344 1.023-2.96l-2.815-2.842c-1.548 1.534-2.208 3.56-2.208 5.802h4Zm1.023-2.96c.625-.619 1.554-1.033 3.064-1.033v-4c-2.297 0-4.334.661-5.879 2.191l2.815 2.842Zm3.064-1.033c1.368 0 2.19.386 2.722.939l2.88-2.777c-1.46-1.514-3.427-2.162-5.602-2.162v4Zm2.722.939c.556.576.945 1.458.945 2.868h4c0-2.185-.629-4.155-2.065-5.645l-2.88 2.777Zm2.975 2.93c0-1.696-.4-3.319-1.504-4.555l-2.984 2.663c.225.252.488.778.488 1.892h4Zm-1.504-4.555c-1.133-1.27-2.687-1.784-4.348-1.784v4c.82 0 1.169.228 1.364.447l2.984-2.663Zm-4.348-1.784c-1.715 0-3.214.568-4.368 1.775l2.892 2.764c.308-.322.713-.54 1.476-.54v-4Zm-4.389 1.798c-1.153 1.244-1.595 2.868-1.595 4.603h4c0-1.075.266-1.6.529-1.885l-2.934-2.718Zm-1.595 4.603c0 1.777.465 3.308 1.657 4.522l2.854-2.803c-.268-.273-.511-.685-.511-1.719h-4Zm1.636 4.5c1.142 1.2 2.67 1.757 4.348 1.757v-4c-.757 0-1.176-.227-1.451-.516l-2.897 2.759Zm4.348 1.757c1.632 0 3.212-.511 4.348-1.784l-2.984-2.663c-.192.215-.56.447-1.364.447v4Zm4.348-1.784c1.097-1.229 1.504-2.825 1.504-4.514h-4c0 1.08-.257 1.592-.488 1.85l2.984 2.664Zm16.97-10.726-3.586 11.159 3.808 1.224 3.586-11.16-3.808-1.223Zm-1.682 9.77h-1.993v4h1.993v-4Zm-.081 1.412-2.457-7.977-3.823 1.178 2.457 7.977 3.823-1.178Zm-2.469-8.014a2.125 2.125 0 0 1-.08-.514l-3.994.214a6.02 6.02 0 0 0 .275 1.552l3.799-1.252Zm-2.077-2.407h-.044v4h.044v-4Zm-2.036 1.822c.002-.02 0 .013-.028.125a7.334 7.334 0 0 1-.128.433l3.809 1.224c.132-.413.287-.933.331-1.426l-3.984-.356Zm-.148.535-2.679 7.997 3.793 1.27 2.679-7.997-3.793-1.27Zm-.782 6.632h-1.904v4h1.904v-4Zm-.001 1.385-3.608-11.16-3.806 1.231 3.608 11.16 3.806-1.231Zm-5.511-8.544h2.014v-4h-2.014v4Zm.095-1.438 2.457 8.39 3.839-1.124-2.457-8.39-3.839 1.124Zm2.427 8.275c.056.246.095.45.108.678l3.993-.225a7.866 7.866 0 0 0-.202-1.347l-3.899.895Zm2.104 2.566h.089v-4h-.089v4Zm2.089-2c0 .069-.009.072.013-.026.02-.09.055-.217.112-.396l-3.808-1.224c-.132.41-.317 1.03-.317 1.646h4Zm.122-.41 2.745-8.37-3.801-1.246-2.745 8.37 3.801 1.246Zm.844-6.993h1.749v-4h-1.749v4Zm-.169-1.434 2.479 8.41 3.837-1.13-2.479-8.411-3.837 1.13Zm2.448 8.292c.056.245.095.45.108.678l3.993-.225a7.866 7.866 0 0 0-.202-1.348l-3.899.895Zm2.104 2.565h.089v-4h-.089v4Zm2.089-2c0-.022.005-.105.096-.377l-3.793-1.27c-.131.389-.303.967-.303 1.647h4Zm.12-.456 2.435-8.41-3.842-1.113-2.435 8.41 3.842 1.113Zm.514-6.967h1.882v-4h-1.882v4Zm.518-.537.022.02 2.728-2.925-.022-.02-2.728 2.925Zm7.532 6.72c0 .324-.087.524-.397.758l2.404 3.197c1.284-.966 1.993-2.335 1.993-3.955h-4Zm-.397.758c-.36.27-.962.508-1.986.508v4c1.633 0 3.156-.383 4.39-1.311l-2.404-3.197Zm-1.986.508c-.86 0-1.517-.173-2.015-.442l-1.902 3.519c1.185.64 2.52.922 3.917.922v-4Zm-.966 1.318v-1.922h-4v1.922h4Zm-3.206-.327c1.248.944 2.706 1.48 4.305 1.48v-4c-.659 0-1.282-.209-1.893-.67l-2.412 3.19Zm4.305 1.48c.921 0 1.962-.148 2.825-.732.999-.675 1.455-1.723 1.455-2.819h-4c0 .007 0-.081.064-.21a.752.752 0 0 1 .24-.284c.062-.041.069-.027-.036-.003a2.56 2.56 0 0 1-.548.047v4Zm4.28-3.55c0-.961-.38-1.844-1.078-2.496l-2.729 2.924a.613.613 0 0 1-.142-.207.57.57 0 0 1-.051-.222h4Zm-1.078-2.496c-.349-.326-.793-.583-1.156-.774a22.114 22.114 0 0 0-1.422-.671l-1.602 3.665c.502.22.883.398 1.157.543.313.165.356.219.294.161l2.729-2.924Zm-2.654-1.476c-.93-.362-1.327-.674-1.469-.832l-2.984 2.664c.744.833 1.808 1.43 3.003 1.895l1.45-3.727Zm-1.497-.863a.236.236 0 0 1-.051-.098 1.544 1.544 0 0 1-.055-.461h-4c0 1.134.287 2.327 1.179 3.285l2.927-2.727Zm-.106-.56c0-.246.059-.451.424-.735l-2.456-3.157c-1.23.956-1.968 2.28-1.968 3.893h4Zm.424-.735c.381-.297.92-.509 1.782-.509v-4c-1.572 0-3.026.408-4.238 1.352l2.456 3.157Zm1.782-.509c.716 0 1.259.123 1.7.33l1.692-3.625c-1.064-.497-2.204-.705-3.392-.705v4Zm.546-1.483v1.798h4V26.03h-4Zm3.14.154c-1.141-.79-2.454-1.162-3.841-1.162v4c.65 0 1.152.166 1.561.45l2.28-3.288Zm-3.841-1.162c-.963 0-1.888.225-2.702.816l2.35 3.236c.007-.005.016-.012.049-.021a1.1 1.1 0 0 1 .303-.031v-4Zm-2.746.848c-.815.627-1.357 1.56-1.357 2.702h4a.682.682 0 0 1-.205.47l-2.438-3.172Zm-1.357 2.702c0 .952.319 1.89 1.078 2.598l2.73-2.924a.69.69 0 0 1 .165.243c.033.083.027.122.027.083h-4Zm1.078 2.598c.351.328.776.573 1.142.758.392.198.851.391 1.353.581l1.414-3.742a10.28 10.28 0 0 1-.965-.41c-.248-.126-.277-.169-.214-.11l-2.73 2.923Zm2.455 1.324c1.04.418 1.513.761 1.679.938l2.918-2.735c-.764-.816-1.884-1.423-3.103-1.914l-1.494 3.71Zm1.679.938c.069.073.145.18.145.492h4c0-1.176-.366-2.309-1.227-3.228l-2.918 2.736Z" fill="#F2F2F2" fill-opacity=".8" mask="url(#a)"/><mask fill="#fff" id="b"><path d="M156.084 32.973c0 1.302-.509 2.335-1.483 3.1-.996.743-2.347 1.115-4.051 1.115-.62 0-1.328-.103-2.103-.289-.775-.186-1.328-.392-1.66-.6V34.13c.464.393 1.106.723 1.881.992.775.269 1.506.413 2.17.413 2.147 0 3.21-.785 3.21-2.335 0-.661-.222-1.22-.687-1.674-.465-.475-1.394-1.074-2.833-1.839-1.373-.723-2.347-1.426-2.9-2.066-.554-.662-.841-1.447-.841-2.377 0-1.24.487-2.232 1.483-3.017.996-.765 2.258-1.157 3.829-1.157 1.572 0 2.59.186 3.299.558v2.046c-.863-.641-1.992-.951-3.387-.951-.93 0-1.682.207-2.258.64-.598.435-.886 1.013-.886 1.716 0 .516.089.93.266 1.24.177.31.465.62.886.93.42.31 1.106.723 2.103 1.24 1.483.764 2.501 1.487 3.099 2.17a3.46 3.46 0 0 1 .885 2.355m7.903 3.823c-.465.248-1.062.351-1.793.351-2.081 0-3.121-1.095-3.121-3.285V27.31h-2.059v-1.509h2.059v-2.728l1.903-.578v3.306h3.011v1.509h-3.011v6.302c0 .744.133 1.282.399 1.592.266.31.731.475 1.372.475a2.27 2.27 0 0 0 1.24-.351v1.529-.02Zm13.194-5.517c0 1.777-.532 3.203-1.616 4.277-1.085 1.075-2.524 1.612-4.339 1.612-1.815 0-3.166-.517-4.228-1.57-1.063-1.054-1.572-2.439-1.572-4.133 0-1.84.531-3.307 1.616-4.381 1.085-1.075 2.568-1.612 4.472-1.612 1.771 0 3.165.516 4.161 1.55.997 1.033 1.506 2.459 1.506 4.257Zm-1.97.062c0-1.406-.332-2.48-.997-3.224-.664-.744-1.616-1.116-2.855-1.116-1.24 0-2.214.393-2.922 1.157-.709.765-1.063 1.84-1.063 3.245s.354 2.376 1.085 3.14c.708.745 1.682 1.117 2.9 1.117 1.217 0 2.191-.372 2.855-1.116.665-.744.997-1.798.997-3.183m10.205-3.781c-.332-.248-.819-.352-1.461-.352-.842 0-1.528.372-2.059 1.116-.531.744-.797 1.715-.797 2.914v5.683h-1.904v-11.16h1.904v2.295h.044c.266-.765.664-1.385 1.218-1.819a3.023 3.023 0 0 1 1.904-.661c.509 0 .885.041 1.151.144v1.84Zm11.533 4.215h-8.434c.022 1.26.398 2.211 1.062 2.873.687.661 1.616.992 2.834.992 1.35 0 2.59-.414 3.697-1.22v1.674c-1.041.724-2.435 1.075-4.162 1.075-1.727 0-3.033-.517-3.985-1.55-.951-1.033-1.438-2.438-1.438-4.257 0-1.095.243-2.108.708-3.017.487-.91 1.129-1.612 1.97-2.129a5.39 5.39 0 0 1 2.789-.744c1.55 0 2.767.476 3.631 1.406.863.93 1.306 2.252 1.306 3.947v.93l.022.02Zm-1.948-1.508c0-1.034-.288-1.84-.797-2.397-.509-.579-1.24-.848-2.192-.848-.885 0-1.638.29-2.28.889-.642.6-1.018 1.384-1.195 2.356h6.464Z"/></mask><path d="M156.084 32.973c0 1.302-.509 2.335-1.483 3.1-.996.743-2.347 1.115-4.051 1.115-.62 0-1.328-.103-2.103-.289-.775-.186-1.328-.392-1.66-.6V34.13c.464.393 1.106.723 1.881.992.775.269 1.506.413 2.17.413 2.147 0 3.21-.785 3.21-2.335 0-.661-.222-1.22-.687-1.674-.465-.475-1.394-1.074-2.833-1.839-1.373-.723-2.347-1.426-2.9-2.066-.554-.662-.841-1.447-.841-2.377 0-1.24.487-2.232 1.483-3.017.996-.765 2.258-1.157 3.829-1.157 1.572 0 2.59.186 3.299.558v2.046c-.863-.641-1.992-.951-3.387-.951-.93 0-1.682.207-2.258.64-.598.435-.886 1.013-.886 1.716 0 .516.089.93.266 1.24.177.31.465.62.886.93.42.31 1.106.723 2.103 1.24 1.483.764 2.501 1.487 3.099 2.17a3.46 3.46 0 0 1 .885 2.355m7.903 3.823c-.465.248-1.062.351-1.793.351-2.081 0-3.121-1.095-3.121-3.285V27.31h-2.059v-1.509h2.059v-2.728l1.903-.578v3.306h3.011v1.509h-3.011v6.302c0 .744.133 1.282.399 1.592.266.31.731.475 1.372.475a2.27 2.27 0 0 0 1.24-.351v1.529-.02Zm13.194-5.517c0 1.777-.532 3.203-1.616 4.277-1.085 1.075-2.524 1.612-4.339 1.612-1.815 0-3.166-.517-4.228-1.57-1.063-1.054-1.572-2.439-1.572-4.133 0-1.84.531-3.307 1.616-4.381 1.085-1.075 2.568-1.612 4.472-1.612 1.771 0 3.165.516 4.161 1.55.997 1.033 1.506 2.459 1.506 4.257Zm-1.97.062c0-1.406-.332-2.48-.997-3.224-.664-.744-1.616-1.116-2.855-1.116-1.24 0-2.214.393-2.922 1.157-.709.765-1.063 1.84-1.063 3.245s.354 2.376 1.085 3.14c.708.745 1.682 1.117 2.9 1.117 1.217 0 2.191-.372 2.855-1.116.665-.744.997-1.798.997-3.183m10.205-3.781c-.332-.248-.819-.352-1.461-.352-.842 0-1.528.372-2.059 1.116-.531.744-.797 1.715-.797 2.914v5.683h-1.904v-11.16h1.904v2.295h.044c.266-.765.664-1.385 1.218-1.819a3.023 3.023 0 0 1 1.904-.661c.509 0 .885.041 1.151.144v1.84Zm11.533 4.215h-8.434c.022 1.26.398 2.211 1.062 2.873.687.661 1.616.992 2.834.992 1.35 0 2.59-.414 3.697-1.22v1.674c-1.041.724-2.435 1.075-4.162 1.075-1.727 0-3.033-.517-3.985-1.55-.951-1.033-1.438-2.438-1.438-4.257 0-1.095.243-2.108.708-3.017.487-.91 1.129-1.612 1.97-2.129a5.39 5.39 0 0 1 2.789-.744c1.55 0 2.767.476 3.631 1.406.863.93 1.306 2.252 1.306 3.947v.93l.022.02Zm-1.948-1.508c0-1.034-.288-1.84-.797-2.397-.509-.579-1.24-.848-2.192-.848-.885 0-1.638.29-2.28.889-.642.6-1.018 1.384-1.195 2.356h6.464Z" fill="#F2F2F2" fill-opacity=".8"/><path d="m154.601 36.073 1.197 1.602.019-.014.019-.015-1.235-1.573Zm-7.814.227h-2v1.11l.943.588 1.057-1.698Zm0-2.17 1.29-1.528-3.29-2.779v4.307h2Zm6.574-2.604-1.43 1.399.016.016.016.015 1.398-1.43Zm-2.833-1.839.938-1.766-.006-.003-.932 1.77Zm-2.9-2.066-1.534 1.283.01.012.01.012 1.514-1.307Zm.642-5.394-1.218-1.587-.01.008-.01.008 1.238 1.571Zm7.128-.6h2V20.42l-1.07-.562-.93 1.77Zm0 2.047-1.192 1.606 3.192 2.368v-3.974h-2Zm-5.645-.31 1.175 1.618.015-.01.014-.011-1.204-1.597Zm2.369 5.124-.921 1.776.004.002.917-1.777Zm11.887 8.35h2v-3.334l-2.941 1.569.941 1.764Zm-4.914-9.527h2v-2h-2v2Zm-2.059 0h-2v2h2v-2Zm0-1.509v-2h-2v2h2Zm2.059 0v2h2v-2h-2Zm0-2.728-.582-1.913-1.418.43v1.483h2Zm1.903-.578h2v-2.698l-2.581.784.581 1.914Zm0 3.306h-2v2h2v-2Zm3.011 0h2v-2h-2v2Zm0 1.509v2h2v-2h-2Zm-3.011 0v-2h-2v2h2Zm3.011 8.018h2v-3.66l-3.08 1.976 1.08 1.684Zm4.472-.744 1.448-1.38-.002-.002-1.446 1.382Zm12.64 2.397v2h2v-2h-2Zm-1.904 0h-2v2h2v-2Zm0-11.16v-2h-2v2h2Zm1.904 0h2v-2h-2v2Zm0 2.295h-2v2h2v-2Zm.044 0v2h1.423l.467-1.344-1.89-.656Zm4.273-2.336h2v-1.368l-1.275-.495-.725 1.863Zm11.533 6.055v2h5.077l-3.713-3.462-1.364 1.462Zm-8.434 0v-2h-2.036l.036 2.035 2-.035Zm1.062 2.873-1.411 1.417.012.012.012.01 1.387-1.44Zm6.531-.228h2v-3.93l-3.177 2.314 1.177 1.616Zm0 1.674 1.141 1.642.859-.596v-1.046h-2Zm-8.877-7.75-1.763-.943-.009.016-.009.017 1.781.91Zm1.97-2.128-1.016-1.723-.015.01-.016.01 1.047 1.703Zm7.726 5.539h-2v.87l.636.592 1.364-1.462Zm-1.926-1.488v2h2v-2h-2Zm-.797-2.397-1.501 1.32.012.014.012.014 1.477-1.348Zm-5.667 2.397-1.968-.359-.43 2.359h2.398v-2Zm-34.475 2.645c0 .698-.235 1.147-.718 1.526l2.47 3.147c1.465-1.15 2.248-2.767 2.248-4.673h-4Zm-.68 1.497c-.543.406-1.424.718-2.854.718v4c1.978 0 3.798-.43 5.248-1.513l-2.394-3.205Zm-2.854.718c-.411 0-.955-.07-1.636-.234l-.934 3.89c.868.208 1.741.344 2.57.344v-4Zm-1.636-.234a7.284 7.284 0 0 1-.779-.226 2.749 2.749 0 0 1-.273-.116l-.019-.01-2.113 3.396c.606.377 1.408.644 2.25.846l.934-3.89Zm-.127 1.346v-2.17h-4v2.17h4Zm-3.291-.642c.718.606 1.608 1.038 2.517 1.354l1.31-3.78c-.64-.222-1.034-.451-1.246-.63l-2.581 3.056Zm2.517 1.354c.922.32 1.879.523 2.825.523v-4c-.383 0-.887-.085-1.515-.303l-1.31 3.78Zm2.825.523c1.258 0 2.56-.22 3.589-.971 1.146-.837 1.621-2.08 1.621-3.364h-4c0 .16-.028.206-.019.188a.18.18 0 0 1 .024-.038l.015-.016c-.039.028-.341.201-1.23.201v4Zm5.21-4.335c0-1.164-.414-2.249-1.288-3.104l-2.797 2.86c.048.047.059.074.063.083a.423.423 0 0 1 .022.161h4Zm-1.257-3.072c-.708-.724-1.9-1.45-3.325-2.207l-1.877 3.532c1.453.772 2.121 1.245 2.342 1.472l2.86-2.797Zm-3.331-2.21c-1.291-.68-2.007-1.244-2.319-1.605l-3.027 2.615c.795.92 2.027 1.762 3.481 2.528l1.865-3.538Zm-2.298-1.581c-.243-.29-.375-.617-.375-1.093h-4c0 1.384.442 2.627 1.307 3.66l3.068-2.567Zm-.375-1.093c0-.612.194-1.03.721-1.446l-2.476-3.142c-1.466 1.155-2.245 2.72-2.245 4.588h4Zm.701-1.43c.579-.445 1.386-.744 2.611-.744v-4c-1.918 0-3.634.486-5.047 1.57l2.436 3.174Zm2.611-.744c1.472 0 2.095.185 2.369.328l1.86-3.54c-1.143-.601-2.556-.788-4.229-.788v4Zm1.299-1.442v2.046h4v-2.046h-4Zm3.192.44c-1.307-.97-2.897-1.345-4.579-1.345v4c1.107 0 1.775.245 2.195.557l2.384-3.213Zm-4.579-1.345c-1.218 0-2.438.272-3.462 1.044l2.408 3.194c.127-.096.412-.238 1.054-.238v-4Zm-3.433 1.022c-1.113.808-1.711 1.986-1.711 3.334h4c0-.039.004-.057.005-.06a.068.068 0 0 1-.005.012c-.005.01-.008.011-.003.006a.38.38 0 0 1 .064-.055l-2.35-3.237Zm-1.711 3.334c0 .719.12 1.514.53 2.232l3.473-1.984c.03.052.028.072.019.03a1.397 1.397 0 0 1-.022-.278h-4Zm.53 2.232c.353.619.862 1.125 1.435 1.548l2.373-3.22a2.098 2.098 0 0 1-.268-.23.462.462 0 0 1-.067-.082l-3.473 1.984Zm1.435 1.548c.545.401 1.339.87 2.369 1.405l1.841-3.55c-.962-.5-1.541-.857-1.837-1.075l-2.373 3.22Zm2.373 1.407c1.4.722 2.158 1.308 2.512 1.71l3.008-2.636c-.842-.96-2.121-1.822-3.687-2.63l-1.833 3.556Zm2.512 1.71c.273.313.389.628.389 1.038h4a5.455 5.455 0 0 0-1.381-3.674l-3.008 2.637Zm9.351 3.096c-.053.029-.275.116-.852.116v4c.884 0 1.857-.118 2.734-.586l-1.882-3.53Zm-.852.116c-.705 0-.873-.18-.891-.198-.036-.038-.23-.275-.23-1.087h-4c0 1.378.325 2.784 1.33 3.842 1.023 1.076 2.415 1.444 3.791 1.444v-4Zm-1.121-1.285V27.31h-4v6.592h4Zm-2-8.592h-2.059v4h2.059v-4Zm-.059 2v-1.509h-4v1.509h4Zm-2 .491h2.059v-4h-2.059v4Zm4.059-2v-2.728h-4v2.728h4Zm-1.419-.814 1.904-.579-1.163-3.827-1.904.579 1.163 3.827Zm-.678-2.492v3.306h4v-3.306h-4Zm2 5.306h3.011v-4h-3.011v4Zm1.011-2v1.509h4v-1.509h-4Zm2-.491h-3.011v4h3.011v-4Zm-5.011 2v6.302h4v-6.302h-4Zm0 6.302c0 .864.132 2.02.88 2.893l3.038-2.603c.128.15.139.251.123.184a2.056 2.056 0 0 1-.041-.474h-4Zm.88 2.893c.809.944 1.975 1.174 2.891 1.174v-4c-.158 0-.202-.022-.169-.01a.79.79 0 0 1 .316.233l-3.038 2.603Zm2.891 1.174c.83 0 1.629-.224 2.32-.668l-2.16-3.367a.173.173 0 0 1-.049.022.402.402 0 0 1-.111.013v4Zm-.76-2.351v1.529h4v-1.53h-4Zm4 1.529v-.02h-4v.02h4Zm9.194-5.538c0 1.348-.387 2.226-1.024 2.856l2.815 2.842c1.533-1.518 2.209-3.493 2.209-5.698h-4Zm-1.024 2.856c-.643.637-1.54 1.033-2.931 1.033v4c2.239 0 4.22-.679 5.746-2.19l-2.815-2.843Zm-2.931 1.033c-1.386 0-2.196-.372-2.82-.99l-2.817 2.84c1.502 1.489 3.392 2.15 5.637 2.15v-4Zm-2.82-.99c-.617-.612-.98-1.45-.98-2.713h-4c0 2.125.655 4.057 2.163 5.553l2.817-2.84Zm-.98-2.713c0-1.437.402-2.345 1.024-2.96l-2.816-2.842c-1.547 1.533-2.208 3.56-2.208 5.802h4Zm1.024-2.96c.624-.62 1.553-1.033 3.064-1.033v-4c-2.298 0-4.335.66-5.88 2.19l2.816 2.843Zm3.064-1.033c1.367 0 2.189.386 2.722.938l2.879-2.777c-1.46-1.514-3.427-2.161-5.601-2.161v4Zm2.722.938c.555.576.945 1.459.945 2.869h4c0-2.186-.629-4.155-2.066-5.646l-2.879 2.777Zm2.975 2.93c0-1.696-.401-3.319-1.505-4.555l-2.984 2.664c.225.251.489.777.489 1.892h4Zm-1.505-4.555c-1.132-1.269-2.687-1.784-4.347-1.784v4c.819 0 1.168.229 1.363.448l2.984-2.664Zm-4.347-1.784c-1.697 0-3.24.557-4.389 1.798l2.934 2.718c.267-.288.672-.516 1.455-.516v-4Zm-4.389 1.798c-1.154 1.245-1.596 2.868-1.596 4.604h4c0-1.075.266-1.601.53-1.886l-2.934-2.718Zm-1.596 4.604c0 1.784.469 3.298 1.639 4.522l2.892-2.763c-.291-.305-.531-.733-.531-1.76h-4Zm1.636 4.52c1.159 1.217 2.7 1.737 4.349 1.737v-4c-.786 0-1.194-.225-1.452-.495l-2.897 2.758Zm4.349 1.737c1.631 0 3.211-.512 4.347-1.784l-2.984-2.664c-.192.215-.56.448-1.363.448v4Zm4.347-1.784c1.098-1.23 1.505-2.825 1.505-4.515h-4c0 1.08-.258 1.592-.489 1.85l2.984 2.665Zm10.906-9.899c-.855-.638-1.876-.749-2.657-.749v4c.222 0 .343.02.392.03.045.011-.022.003-.128-.076l2.393-3.205Zm-2.657-.749c-1.55 0-2.818.738-3.687 1.954l3.255 2.325c.12-.167.205-.223.239-.241a.376.376 0 0 1 .193-.038v-4Zm-3.687 1.954c-.839 1.175-1.169 2.59-1.169 4.076h4c0-.91.201-1.438.424-1.752l-3.255-2.324Zm-1.169 4.076v5.683h4v-5.683h-4Zm2 3.683h-1.904v4h1.904v-4Zm.096 2v-11.16h-4v11.16h4Zm-2-9.16h1.904v-4h-1.904v4Zm-.096-2v2.295h4v-2.294h-4Zm2 4.295h.044v-4h-.044v4Zm1.934-1.344c.173-.5.382-.76.562-.901l-2.468-3.148c-.927.727-1.515 1.706-1.873 2.736l3.779 1.313Zm.562-.901c.209-.164.418-.235.67-.235v-4c-1.166 0-2.24.383-3.138 1.087l2.468 3.148Zm.67-.235c.206 0 .341.008.425.019.088.01.073.017.001-.01l1.45-3.729c-.632-.245-1.324-.28-1.876-.28v4Zm-.849-1.856v1.84h4v-1.84h-4Zm13.533 4.055h-8.434v4h8.434v-4Zm-10.434 2.035c.029 1.652.537 3.145 1.651 4.255l2.823-2.834c-.214-.213-.459-.621-.474-1.49l-4 .07Zm1.675 4.278c1.147 1.106 2.624 1.552 4.221 1.552v-4c-.838 0-1.221-.216-1.446-.432l-2.775 2.88Zm4.221 1.552c1.786 0 3.436-.556 4.874-1.603l-2.354-3.233c-.776.564-1.606.836-2.52.836v4Zm1.697-3.22v1.674h4v-1.674h-4Zm.858.032c-.595.414-1.542.717-3.02.717v4c1.976 0 3.817-.4 5.303-1.433l-2.283-3.284Zm-3.02.717c-1.292 0-2.017-.366-2.514-.905l-2.942 2.71c1.408 1.528 3.295 2.195 5.456 2.195v-4Zm-2.514-.905c-.53-.576-.909-1.452-.909-2.902h-4c0 2.186.594 4.122 1.967 5.612l2.942-2.71Zm-.909-2.902c0-.79.173-1.49.489-2.107l-3.562-1.82a8.56 8.56 0 0 0-.927 3.927h4Zm.471-2.073c.334-.623.739-1.052 1.254-1.368l-2.094-3.409c-1.167.717-2.046 1.694-2.686 2.889l3.526 1.888Zm1.223-1.35a3.391 3.391 0 0 1 1.773-.466v-4a7.393 7.393 0 0 0-3.805 1.02L190.239 28Zm1.773-.466c1.119 0 1.758.327 2.165.765l2.931-2.721c-1.319-1.421-3.115-2.044-5.096-2.044v4Zm2.165.765c.422.455.772 1.233.772 2.587h4c0-2.035-.536-3.903-1.841-5.308l-2.931 2.721Zm.772 2.587v.93h4v-.93h-4Zm.636 2.392.022.02 2.728-2.924-.022-.021-2.728 2.925Zm1.438-2.95c0-1.401-.395-2.733-1.32-3.745l-2.954 2.696c.094.103.274.384.274 1.049h4Zm-1.295-3.719c-.997-1.132-2.353-1.526-3.694-1.526v4c.564 0 .669.144.691.169l3.003-2.643Zm-3.694-1.526c-1.377 0-2.622.472-3.644 1.427l2.729 2.924c.261-.244.522-.35.915-.35v-4Zm-3.644 1.427c-1.027.958-1.564 2.17-1.799 3.459l3.936.717c.119-.653.335-1.012.592-1.252l-2.729-2.924Zm.169 5.818h6.464v-4h-6.464v4Z" fill="#F2F2F2" fill-opacity=".8" mask="url(#b)"/><mask fill="#fff" id="c"><path d="M58.305 9.187c0 1.075-.243 2.005-.753 2.831a5.048 5.048 0 0 1-2.125 1.88c-.93.435-1.992.662-3.165.662h-2.967V4.083h3.1c3.962 0 5.932 1.694 5.932 5.104m-1.372.02c0-2.686-1.528-4.029-4.583-4.029h-1.748v8.266h1.66c1.483 0 2.634-.372 3.453-1.116.82-.744 1.218-1.777 1.218-3.12Zm10.714 1.571c0 1.178-.354 2.15-1.085 2.873-.73.723-1.682 1.095-2.9 1.095-1.217 0-2.125-.351-2.833-1.054-.709-.703-1.063-1.632-1.063-2.79 0-1.24.355-2.21 1.085-2.934.73-.723 1.727-1.075 3.01-1.075 1.196 0 2.126.352 2.79 1.034.664.702 1.018 1.653 1.018 2.851m-1.306.042c0-.95-.221-1.653-.664-2.17-.443-.496-1.085-.744-1.926-.744s-1.483.248-1.948.765c-.487.516-.73 1.24-.73 2.17 0 .93.243 1.59.73 2.107.487.496 1.129.765 1.948.765.82 0 1.483-.248 1.926-.744.443-.496.664-1.22.664-2.15ZM79.8 7.059l-2.413 7.48H76.06L74.4 9.187a10.047 10.047 0 0 1-.133-.682h-.022c0 .166-.067.393-.155.682l-1.793 5.373h-1.284L68.6 7.08h1.35l1.66 5.62a4.5 4.5 0 0 1 .111.682h.067c0-.186.066-.413.154-.682l1.838-5.62h1.173l1.66 5.64c.045.187.089.414.111.683h.066c0-.228.045-.455.133-.682l1.638-5.642h1.262l-.022-.02Zm8.147 7.48h-1.284v-4.277c0-1.591-.62-2.377-1.86-2.377-.642 0-1.173.228-1.594.662-.42.454-.642 1.012-.642 1.715v4.277h-1.284V7.06h1.284V8.3h.022c.598-.951 1.484-1.426 2.635-1.426.885 0 1.55.268 2.014.806.465.537.686 1.302.686 2.273v4.587h.022Zm3.696 0H90.36V3.484h1.284V14.56v-.02Zm9.896-3.76c0 1.177-.355 2.149-1.085 2.872-.73.723-1.705 1.095-2.9 1.095-1.195 0-2.125-.351-2.834-1.054-.708-.703-1.062-1.632-1.062-2.79 0-1.24.354-2.21 1.085-2.934.73-.723 1.726-1.075 2.988-1.075 1.195 0 2.125.352 2.789 1.034.664.702 1.019 1.653 1.019 2.851Zm-1.306.04c0-.95-.222-1.652-.665-2.17-.442-.495-1.084-.743-1.903-.743-.82 0-1.484.248-1.97.765-.488.516-.709 1.24-.709 2.17 0 .93.243 1.59.73 2.107.488.496 1.13.765 1.949.765.819 0 1.483-.248 1.925-.744.443-.496.665-1.22.665-2.15m8.987 3.72h-1.284v-1.178h-.022c-.553.91-1.372 1.364-2.457 1.364-.775 0-1.395-.206-1.86-.599-.464-.393-.708-.93-.708-1.591 0-1.385.885-2.211 2.656-2.439l2.413-.31c0-1.26-.553-1.9-1.66-1.9-.974 0-1.837.31-2.612.909v-1.22c.243-.165.642-.33 1.195-.475.576-.145 1.085-.227 1.528-.227 1.881 0 2.833.93 2.833 2.81v4.877l-.022-.02Zm-1.284-3.781-1.948.248c-.664.082-1.129.227-1.394.434-.266.206-.399.537-.399 1.012 0 .372.155.682.421.91.288.227.642.35 1.107.35.642 0 1.173-.206 1.571-.62.421-.412.62-.95.62-1.57v-.744l.022-.02Zm10.493 3.781h-1.284v-1.28h-.022c-.598.97-1.527 1.466-2.767 1.466-1.018 0-1.815-.35-2.413-1.012-.598-.661-.908-1.591-.908-2.728 0-1.24.333-2.232.997-2.976.664-.744 1.549-1.116 2.678-1.116s1.904.414 2.413 1.22h.022v-4.63h1.284V14.56v-.02Zm-1.284-3.389v-1.116c0-.62-.221-1.136-.664-1.55-.443-.413-.974-.62-1.616-.62-.775 0-1.395.27-1.837.807-.443.537-.686 1.28-.686 2.21 0 .848.221 1.53.641 2.046.421.497.997.745 1.727.745.731 0 1.284-.248 1.749-.724.443-.475.686-1.074.686-1.818m11.578-6.654a1.883 1.883 0 0 0-.863-.207c-.886 0-1.351.537-1.351 1.591v1.157h1.882V8.03h-1.882v6.468h-1.284V8.03h-1.372V7.017h1.372V5.798c0-.764.244-1.364.731-1.839.487-.475 1.084-.703 1.837-.703.399 0 .708.042.93.124v1.095Zm5.246 3.76c-.221-.165-.553-.247-.974-.247-.575 0-1.018.248-1.372.744-.354.496-.532 1.157-.532 1.942v3.823h-1.283v-7.48h1.283v1.55h.023c.177-.517.442-.93.819-1.22a2.05 2.05 0 0 1 1.284-.455c.332 0 .597.042.774.104v1.24h-.022Zm8.479 2.501c0 1.178-.354 2.15-1.085 2.873-.73.723-1.705 1.095-2.922 1.095-1.218 0-2.125-.352-2.834-1.054-.708-.703-1.062-1.633-1.062-2.79 0-1.24.354-2.211 1.085-2.934.73-.724 1.726-1.075 2.988-1.075 1.195 0 2.125.351 2.789 1.033.664.703 1.019 1.653 1.019 2.852m-1.306.041c0-.95-.222-1.653-.665-2.17-.442-.495-1.084-.743-1.903-.743s-1.484.248-1.971.764c-.487.517-.73 1.24-.73 2.17 0 .93.243 1.591.73 2.108.487.496 1.129.764 1.949.764.819 0 1.483-.247 1.925-.743.443-.496.665-1.22.665-2.15Zm14.698 3.72h-1.284V10.2c0-.827-.132-1.447-.42-1.798-.266-.372-.731-.537-1.373-.537-.553 0-1.018.227-1.394.702a2.622 2.622 0 0 0-.576 1.674v4.278h-1.284v-4.443c0-1.467-.597-2.211-1.815-2.211-.553 0-1.018.227-1.395.66-.354.435-.553 1.013-.553 1.716v4.278h-1.284V7.038h1.284v1.178h.022c.576-.91 1.395-1.364 2.479-1.364.51 0 .997.145 1.417.413.421.269.709.662.864 1.137.597-1.033 1.483-1.55 2.656-1.55 1.771 0 2.656 1.013 2.656 3.058v4.609-.02Z"/></mask><path d="M58.305 9.187c0 1.075-.243 2.005-.753 2.831a5.048 5.048 0 0 1-2.125 1.88c-.93.435-1.992.662-3.165.662h-2.967V4.083h3.1c3.962 0 5.932 1.694 5.932 5.104m-1.372.02c0-2.686-1.528-4.029-4.583-4.029h-1.748v8.266h1.66c1.483 0 2.634-.372 3.453-1.116.82-.744 1.218-1.777 1.218-3.12Zm10.714 1.571c0 1.178-.354 2.15-1.085 2.873-.73.723-1.682 1.095-2.9 1.095-1.217 0-2.125-.351-2.833-1.054-.709-.703-1.063-1.632-1.063-2.79 0-1.24.355-2.21 1.085-2.934.73-.723 1.727-1.075 3.01-1.075 1.196 0 2.126.352 2.79 1.034.664.702 1.018 1.653 1.018 2.851m-1.306.042c0-.95-.221-1.653-.664-2.17-.443-.496-1.085-.744-1.926-.744s-1.483.248-1.948.765c-.487.516-.73 1.24-.73 2.17 0 .93.243 1.59.73 2.107.487.496 1.129.765 1.948.765.82 0 1.483-.248 1.926-.744.443-.496.664-1.22.664-2.15ZM79.8 7.059l-2.413 7.48H76.06L74.4 9.187a10.047 10.047 0 0 1-.133-.682h-.022c0 .166-.067.393-.155.682l-1.793 5.373h-1.284L68.6 7.08h1.35l1.66 5.62a4.5 4.5 0 0 1 .111.682h.067c0-.186.066-.413.154-.682l1.838-5.62h1.173l1.66 5.64c.045.187.089.414.111.683h.066c0-.228.045-.455.133-.682l1.638-5.642h1.262l-.022-.02Zm8.147 7.48h-1.284v-4.277c0-1.591-.62-2.377-1.86-2.377-.642 0-1.173.228-1.594.662-.42.454-.642 1.012-.642 1.715v4.277h-1.284V7.06h1.284V8.3h.022c.598-.951 1.484-1.426 2.635-1.426.885 0 1.55.268 2.014.806.465.537.686 1.302.686 2.273v4.587h.022Zm3.696 0H90.36V3.484h1.284V14.56v-.02Zm9.896-3.76c0 1.177-.355 2.149-1.085 2.872-.73.723-1.705 1.095-2.9 1.095-1.195 0-2.125-.351-2.834-1.054-.708-.703-1.062-1.632-1.062-2.79 0-1.24.354-2.21 1.085-2.934.73-.723 1.726-1.075 2.988-1.075 1.195 0 2.125.352 2.789 1.034.664.702 1.019 1.653 1.019 2.851Zm-1.306.04c0-.95-.222-1.652-.665-2.17-.442-.495-1.084-.743-1.903-.743-.82 0-1.484.248-1.97.765-.488.516-.709 1.24-.709 2.17 0 .93.243 1.59.73 2.107.488.496 1.13.765 1.949.765.819 0 1.483-.248 1.925-.744.443-.496.665-1.22.665-2.15m8.987 3.72h-1.284v-1.178h-.022c-.553.91-1.372 1.364-2.457 1.364-.775 0-1.395-.206-1.86-.599-.464-.393-.708-.93-.708-1.591 0-1.385.885-2.211 2.656-2.439l2.413-.31c0-1.26-.553-1.9-1.66-1.9-.974 0-1.837.31-2.612.909v-1.22c.243-.165.642-.33 1.195-.475.576-.145 1.085-.227 1.528-.227 1.881 0 2.833.93 2.833 2.81v4.877l-.022-.02Zm-1.284-3.781-1.948.248c-.664.082-1.129.227-1.394.434-.266.206-.399.537-.399 1.012 0 .372.155.682.421.91.288.227.642.35 1.107.35.642 0 1.173-.206 1.571-.62.421-.412.62-.95.62-1.57v-.744l.022-.02Zm10.493 3.781h-1.284v-1.28h-.022c-.598.97-1.527 1.466-2.767 1.466-1.018 0-1.815-.35-2.413-1.012-.598-.661-.908-1.591-.908-2.728 0-1.24.333-2.232.997-2.976.664-.744 1.549-1.116 2.678-1.116s1.904.414 2.413 1.22h.022v-4.63h1.284V14.56v-.02Zm-1.284-3.389v-1.116c0-.62-.221-1.136-.664-1.55-.443-.413-.974-.62-1.616-.62-.775 0-1.395.27-1.837.807-.443.537-.686 1.28-.686 2.21 0 .848.221 1.53.641 2.046.421.497.997.745 1.727.745.731 0 1.284-.248 1.749-.724.443-.475.686-1.074.686-1.818m11.578-6.654a1.883 1.883 0 0 0-.863-.207c-.886 0-1.351.537-1.351 1.591v1.157h1.882V8.03h-1.882v6.468h-1.284V8.03h-1.372V7.017h1.372V5.798c0-.764.244-1.364.731-1.839.487-.475 1.084-.703 1.837-.703.399 0 .708.042.93.124v1.095Zm5.246 3.76c-.221-.165-.553-.247-.974-.247-.575 0-1.018.248-1.372.744-.354.496-.532 1.157-.532 1.942v3.823h-1.283v-7.48h1.283v1.55h.023c.177-.517.442-.93.819-1.22a2.05 2.05 0 0 1 1.284-.455c.332 0 .597.042.774.104v1.24h-.022Zm8.479 2.501c0 1.178-.354 2.15-1.085 2.873-.73.723-1.705 1.095-2.922 1.095-1.218 0-2.125-.352-2.834-1.054-.708-.703-1.062-1.633-1.062-2.79 0-1.24.354-2.211 1.085-2.934.73-.724 1.726-1.075 2.988-1.075 1.195 0 2.125.351 2.789 1.033.664.703 1.019 1.653 1.019 2.852m-1.306.041c0-.95-.222-1.653-.665-2.17-.442-.495-1.084-.743-1.903-.743s-1.484.248-1.971.764c-.487.517-.73 1.24-.73 2.17 0 .93.243 1.591.73 2.108.487.496 1.129.764 1.949.764.819 0 1.483-.247 1.925-.743.443-.496.665-1.22.665-2.15Zm14.698 3.72h-1.284V10.2c0-.827-.132-1.447-.42-1.798-.266-.372-.731-.537-1.373-.537-.553 0-1.018.227-1.394.702a2.622 2.622 0 0 0-.576 1.674v4.278h-1.284v-4.443c0-1.467-.597-2.211-1.815-2.211-.553 0-1.018.227-1.395.66-.354.435-.553 1.013-.553 1.716v4.278h-1.284V7.038h1.284v1.178h.022c.576-.91 1.395-1.364 2.479-1.364.51 0 .997.145 1.417.413.421.269.709.662.864 1.137.597-1.033 1.483-1.55 2.656-1.55 1.771 0 2.656 1.013 2.656 3.058v4.609-.02Z" fill="#F2F2F2" fill-opacity=".8"/><path d="m57.552 12.018.846.534.006-.01-.852-.524Zm-2.125 1.88.423.907.009-.004-.432-.902Zm-6.132.662h-1v1h1v-1Zm0-10.477v-1h-1v1h1Zm1.329 1.095v-1h-1v1h1Zm0 8.266h-1v1h1v-1Zm16.049-5.517.727-.687-.006-.006-.005-.005-.716.698Zm-.952.723.76-.65-.007-.008-.007-.008-.746.666Zm-3.874.02.728.687.008-.009.007-.009-.743-.668Zm0 4.278-.728.686.007.008.008.007.713-.7ZM79.8 7.058l.682-.73-1.15-1.074-.484 1.498.952.307Zm-2.413 7.481v1h.728l.224-.693-.952-.307Zm-1.328 0-.955.297.218.703h.737v-1Zm-1.66-5.352-.973.232.008.032.01.032.955-.296Zm-.133-.682.987-.162-.138-.838h-.85v1Zm-.022 0v-1h-1v1h1Zm-.155.682.948.317.004-.012.004-.012-.956-.293Zm-1.793 5.373v1h.72l.228-.683-.948-.317Zm-1.284 0-.952.307.224.693h.728v-1Zm-2.413-7.48v-1h-1.374l.422 1.306.952-.307Zm1.35 0 .96-.284-.213-.717h-.747v1Zm1.66 5.62.973-.231-.006-.026-.008-.026-.959.283Zm.111.682-.996.082.075.918h.921v-1Zm.067 0v1h1v-1h-1Zm.154-.682.95.313.001-.002-.95-.31Zm1.838-5.62v-1h-.725l-.226.689.95.31Zm1.173 0 .96-.283-.212-.718h-.748v1Zm1.66 5.64.973-.23-.006-.026-.007-.025-.96.282Zm.111.683-.997.082.076.918h.921v-1Zm.066 0v1h1v-1h-1Zm.133-.682.932.363.016-.042.013-.042-.96-.28Zm1.638-5.642v-1h-.75l-.21.722.96.278Zm1.262 0v1h2.539l-1.857-1.731-.682.731Zm6.84 7.46h-1v1h1v-1ZM83.21 8.547l-.718-.696-.008.008-.008.008.734.68Zm-.642 5.992v1h1v-1h-1Zm-1.284 0h-1v1h1v-1Zm0-7.48v-1h-1v1h1Zm1.284 0h1v-1h-1v1Zm0 1.24h-1v1h1v-1Zm.022 0v1h.553l.294-.468-.847-.532Zm5.335 6.24h-1v1h1v-1Zm3.72 0h1v-1h-1v1Zm-1.285 0h-1v1h1v-1Zm0-11.055v-1h-1v1h1Zm1.284 0h1v-1h-1v1Zm8.877 4.443.727-.687-.005-.006-.005-.005-.717.698Zm-.952.723.76-.65-.007-.008-.007-.008-.746.666Zm-3.851 4.298-.728.686.007.008.007.007.714-.7Zm13.525 1.591.682-.73-.288-.27h-.394v1Zm-1.284 0h-1v1h1v-1Zm0-1.178h1v-1h-1v1Zm-.022 0v-1h-.562l-.292.48.854.52Zm-2.369-3.265.128.992-.128-.992Zm2.413-.31.128.992.872-.112v-.88h-1Zm-4.272-.991h-1v2.037l1.612-1.246-.612-.791Zm0-1.22-.562-.827-.438.298v.53h1Zm1.195-.475-.243-.97-.01.003.253.967Zm4.361 7.46-.682.731 1.682 1.57v-2.3h-1Zm-1.306-3.802.682.731 2.268-2.115-3.076.392.126.992Zm-1.948.248.124.992h.002l-.126-.992Zm-1.372 2.355-.65.76.014.013.016.012.62-.785Zm2.678-.268-.701-.713-.009.01-.01.009.72.694Zm.62-2.315-.682-.73-.318.296v.434h1Zm10.515 3.761h1v-1h-1v1Zm-1.284 0h-1v1h1v-1Zm0-1.28h1v-1h-1v1Zm-.022 0v-1h-.559l-.293.475.852.524Zm0-5.146-.845.534.294.466h.551v-1Zm.022 0v1h1v-1h-1Zm0-4.63v-1h-1v1h1Zm1.284 0h1v-1h-1v1Zm-5.401 5.188-.772-.636.772.636Zm-.045 4.257-.775.63.006.009.007.007.762-.646Zm3.476.02.715.7.008-.01.009-.008-.732-.682Zm12.264-8.472-.454.89 1.454.74v-1.63h-1Zm-2.214 2.541h-1v1h1v-1Zm1.882 0h1v-1h-1v1Zm0 1.013v1h1v-1h-1Zm-1.882 0v-1h-1v1h1Zm0 6.468v1h1v-1h-1Zm-1.284 0h-1v1h1v-1Zm0-6.468h1v-1h-1v1Zm-1.372 0h-1v1h1v-1Zm0-1.013v-1h-1v1h1Zm1.372 0v1h1v-1h-1Zm3.498-3.637h1v-.694l-.65-.242-.35.936Zm5.246 4.857-.598.8.266.2h.332v-1Zm-2.878 6.261v1h1v-1h-1Zm-1.283 0h-1v1h1v-1Zm0-7.48v-1h-1v1h1Zm1.283 0h1v-1h-1v1Zm0 1.55h-1v1h1v-1Zm.023 0v1h.714l.232-.676-.946-.325Zm2.877-1.571h1v-.71l-.669-.234-.331.944Zm0 1.24v1h1v-1h-1Zm7.416-.352.727-.687-.005-.005-.005-.005-.717.697Zm-.952.724.76-.651-.007-.008-.007-.007-.746.666Zm-3.874 4.298-.727.686.007.007.007.008.713-.701Zm19.237 1.591h1v-1h-1v1Zm-1.284 0h-1v1h1v-1Zm-.42-6.096-.814.581.019.027.021.026.774-.634Zm-3.343 6.117v1h1v-1h-1Zm-1.284 0h-1v1h1v-1Zm-3.21-5.993-.755-.655-.01.011-.009.012.774.632Zm-.553 5.993v1h1v-1h-1Zm-1.284 0h-1v1h1v-1Zm0-7.481v-1h-1v1h1Zm1.284 0h1v-1h-1v1Zm0 1.178h-1v1h1v-1Zm.022 0v1h.551l.294-.465-.845-.535Zm4.76.186-.951.31.694 2.13 1.122-1.94-.865-.5Zm-93.223.785c0 .914-.204 1.658-.604 2.307l1.703 1.049c.618-1.004.901-2.12.901-3.356h-2Zm-.598 2.297a4.048 4.048 0 0 1-1.711 1.513l.863 1.804a6.048 6.048 0 0 0 2.539-2.249l-1.691-1.068Zm-1.703 1.509c-.783.365-1.7.567-2.742.567v2c1.303 0 2.513-.253 3.588-.755l-.846-1.812Zm-2.742.567h-2.967v2h2.967v-2Zm-1.967 1V4.083h-2V14.56h2Zm-1-9.477h3.1v-2h-3.1v2Zm3.1 0c1.862 0 3.067.401 3.8 1.031.703.606 1.132 1.563 1.132 3.073h2c0-1.9-.555-3.494-1.828-4.589-1.243-1.07-3.004-1.515-5.104-1.515v2Zm5.56 4.125c0-1.533-.442-2.856-1.486-3.773-1.018-.896-2.444-1.257-4.097-1.257v2c1.403 0 2.268.311 2.777.759.484.425.806 1.118.806 2.27h2Zm-5.583-5.03h-1.748v2h1.748v-2Zm-2.748 1v8.266h2V5.178h-2Zm1 9.266h1.66v-2h-1.66v2Zm1.66 0c1.646 0 3.068-.414 4.126-1.376l-1.345-1.48c-.58.527-1.46.856-2.781.856v2Zm4.126-1.376c1.074-.975 1.545-2.305 1.545-3.86h-2c0 1.131-.326 1.868-.89 2.38l1.345 1.48Zm10.259-2.29c0 .967-.284 1.663-.788 2.162l1.407 1.421c.956-.947 1.381-2.194 1.381-3.583h-2Zm-.788 2.162c-.517.512-1.204.806-2.197.806v2c1.442 0 2.66-.45 3.604-1.385l-1.407-1.42Zm-2.197.806c-1 0-1.639-.278-2.129-.764l-1.408 1.42c.926.92 2.103 1.344 3.537 1.344v-2Zm-2.129-.764c-.489-.484-.767-1.143-.767-2.08h-2c0 1.378.43 2.58 1.359 3.5l1.408-1.42Zm-.767-2.08c0-1.037.289-1.729.789-2.223L60.17 7.257c-.96.952-1.38 2.203-1.38 3.645h2Zm.789-2.223c.496-.492 1.212-.786 2.307-.786v-2c-1.474 0-2.75.41-3.715 1.364l1.408 1.422Zm2.307-.786c.99 0 1.638.285 2.073.731l1.432-1.395c-.893-.918-2.105-1.336-3.505-1.336v2Zm2.062.72c.458.485.745 1.174.745 2.165h2c0-1.406-.421-2.618-1.291-3.538l-1.454 1.374Zm1.44 2.207c0-1.105-.26-2.068-.906-2.82l-1.518 1.3c.24.28.423.723.423 1.52h2Zm-.919-2.836c-.68-.762-1.627-1.078-2.672-1.078v2c.637 0 .975.18 1.18.41l1.492-1.332Zm-2.672-1.078c-1.053 0-1.994.32-2.691 1.096l1.486 1.337c.233-.258.576-.433 1.205-.433v-2ZM61.12 7.985c-.71.754-1.002 1.752-1.002 2.855h2c0-.756.194-1.204.458-1.483L61.12 7.985Zm-1.002 2.855c0 1.126.303 2.053 1.002 2.794l1.456-1.372c-.275-.291-.459-.687-.459-1.422h-2Zm1.017 2.809c.692.705 1.6 1.064 2.661 1.064v-2c-.577 0-.953-.179-1.235-.465l-1.427 1.4Zm2.661 1.064c1.018 0 1.99-.313 2.672-1.078l-1.492-1.332c-.203.227-.56.41-1.18.41v2Zm2.672-1.078c.663-.743.918-1.74.918-2.815h-2c0 .785-.188 1.234-.41 1.483l1.492 1.332Zm12.381-6.883-2.412 7.48 1.903.614 2.413-7.48-1.904-.614Zm-1.46 6.787H76.06v2h1.328v-2Zm-.374.704-1.66-5.352-1.91.592 1.66 5.353 1.91-.593Zm-1.642-5.287a9.132 9.132 0 0 1-.12-.613l-1.973.325c.047.283.095.535.147.75l1.945-.462Zm-1.106-1.45h-.022v2h.022v-2Zm-1.022 1c0-.037.005-.03-.016.057-.02.081-.05.184-.096.332l1.913.585c.071-.233.199-.625.199-.975h-2Zm-.104.365-1.793 5.372 1.897.634 1.793-5.373-1.897-.633Zm-.844 4.69h-1.284v2h1.284v-2Zm-.333.692-2.412-7.48-1.904.613 2.413 7.481 1.903-.614ZM68.6 8.08h1.35v-2H68.6v2Zm.391-.716 1.66 5.62 1.918-.566-1.66-5.62-1.918.566Zm1.647 5.569c.036.152.07.327.087.532l1.993-.164a5.499 5.499 0 0 0-.135-.831l-1.945.463Zm1.083 1.45h.067v-2h-.067v2Zm1.067-1c0 .019-.003.002.015-.073a4.08 4.08 0 0 1 .09-.296l-1.9-.626c-.08.243-.206.622-.206.995h2Zm.105-.371 1.837-5.62-1.9-.622-1.838 5.62 1.901.622Zm.887-4.932h1.173v-2H73.78v2Zm.214-.717 1.66 5.641 1.919-.564-1.66-5.642-1.92.565Zm1.647 5.59c.036.152.07.328.086.533l1.994-.164a5.509 5.509 0 0 0-.135-.832l-1.945.463Zm1.083 1.45h.066v-2h-.066v2Zm1.066-1c0-.093.018-.198.065-.318l-1.864-.726c-.13.334-.2.684-.2 1.045h2Zm.094-.402 1.638-5.642-1.92-.557-1.64 5.641 1.922.558Zm.677-4.92h1.262v-2H78.56v2Zm1.944-1.732-.022-.02-1.364 1.462.022.02 1.364-1.462Zm7.442 7.191h-1.283v2h1.284v-2Zm-.283 1v-4.277h-2v4.277h2Zm0-4.277c0-.898-.17-1.755-.678-2.402-.545-.695-1.336-.975-2.182-.975v2c.394 0 .533.113.608.209.112.143.252.474.252 1.168h2Zm-2.86-3.377c-.906 0-1.698.333-2.312.966l1.436 1.392c.228-.235.498-.358.876-.358v-2Zm-2.328.982c-.601.65-.908 1.455-.908 2.395h2c0-.466.137-.777.376-1.036l-1.468-1.359Zm-.908 2.395v4.277h2v-4.277h-2Zm1 3.277h-1.284v2h1.284v-2Zm-.284 1V7.06h-2v7.48h2Zm-1-6.48h1.284v-2h-1.284v2Zm.284-1V8.3h2V7.06h-2Zm1 2.24h.022v-2h-.022v2Zm.869-.468c.407-.647.966-.958 1.788-.958v-2c-1.48 0-2.693.64-3.481 1.893l1.693 1.065Zm1.788-.958c.668 0 1.026.192 1.258.46l1.512-1.309c-.698-.806-1.667-1.151-2.77-1.151v2Zm1.258.46c.251.29.442.785.442 1.619h2c0-1.11-.251-2.144-.93-2.928l-1.512 1.309Zm.442 1.619v4.587h2V9.952h-2Zm1 5.587h.022v-2h-.022v2Zm3.72-2H90.36v2h1.284v-2Zm-.285 1V3.484h-2v11.055h2Zm-1-10.055h1.284v-2H90.36v2Zm.284-1V14.56h2V3.484h-2Zm2 11.076v-.02h-2v.02h2Zm7.896-3.782c0 .967-.284 1.663-.789 2.162l1.407 1.421c.957-.947 1.382-2.194 1.382-3.583h-2Zm-.789 2.162c-.515.51-1.222.806-2.196.806v2c1.417 0 2.658-.448 3.603-1.385l-1.407-1.42Zm-2.196.806c-.982 0-1.641-.28-2.13-.764l-1.408 1.42c.928.92 2.129 1.344 3.538 1.344v-2Zm-2.13-.764c-.488-.484-.766-1.143-.766-2.08h-2c0 1.378.43 2.58 1.358 3.5l1.409-1.42Zm-.766-2.08c0-1.037.288-1.729.788-2.223L94.04 7.257c-.961.952-1.381 2.203-1.381 3.645h2Zm.788-2.223c.498-.494 1.216-.786 2.285-.786v-2c-1.454 0-2.73.411-3.692 1.364l1.407 1.422Zm2.285-.786c.99 0 1.638.285 2.073.731l1.433-1.395c-.894-.918-2.106-1.336-3.506-1.336v2Zm2.063.72c.458.485.745 1.174.745 2.165h2c0-1.406-.422-2.618-1.292-3.538l-1.454 1.374Zm1.439 2.207c0-1.105-.26-2.068-.905-2.82l-1.519 1.3c.24.28.424.723.424 1.52h2Zm-.919-2.836c-.678-.76-1.622-1.078-2.65-1.078v2c.611 0 .95.177 1.158.41l1.492-1.332Zm-2.65-1.078c-1.032 0-1.983.32-2.697 1.079l1.455 1.372c.26-.276.638-.451 1.243-.451v-2Zm-2.697 1.079c-.722.766-.981 1.775-.981 2.855h2c0-.779.184-1.216.436-1.483l-1.455-1.372Zm-.981 2.855c0 1.126.304 2.053 1.003 2.794l1.455-1.372c-.275-.291-.458-.687-.458-1.422h-2Zm1.017 2.809c.693.705 1.6 1.064 2.662 1.064v-2c-.577 0-.954-.179-1.235-.465l-1.427 1.4Zm2.662 1.064c1.018 0 1.989-.313 2.672-1.078l-1.493-1.332c-.202.227-.56.41-1.18.41v2Zm2.672-1.078c.663-.743.918-1.74.918-2.815h-2c0 .785-.188 1.234-.41 1.483l1.492 1.332Zm8.905-.096h-1.284v2h1.284v-2Zm-.284 1v-1.178h-2v1.178h2Zm-1-2.178h-.022v2h.022v-2Zm-.876.48c-.368.605-.859.884-1.603.884v2c1.426 0 2.572-.63 3.311-1.844l-1.708-1.04Zm-1.603.884c-.593 0-.967-.154-1.214-.363l-1.291 1.528c.683.577 1.548.835 2.505.835v-2Zm-1.214-.363c-.225-.19-.354-.44-.354-.827h-2c0 .934.358 1.76 1.063 2.355l1.291-1.528Zm-.354-.827c0-.46.137-.729.342-.918.234-.216.671-.43 1.442-.529l-.255-1.983c-1 .128-1.891.441-2.543 1.041-.68.628-.986 1.464-.986 2.389h2Zm1.784-1.447 2.413-.31-.255-1.983-2.413.31.255 1.983Zm3.285-1.302c0-.755-.162-1.508-.661-2.08-.52-.597-1.25-.82-1.999-.82v2c.358 0 .459.096.491.134.056.064.169.26.169.766h2Zm-2.66-2.9c-1.207 0-2.283.39-3.224 1.118l1.224 1.582c.609-.471 1.259-.7 2-.7v-2Zm-1.612 1.909v-1.22h-2v1.22h2Zm-.438-.392c.106-.073.378-.203.886-.335l-.506-1.935c-.598.156-1.123.357-1.504.615l1.124 1.655Zm.877-.333c.536-.135.957-.197 1.284-.197v-2c-.558 0-1.157.103-1.771.257l.487 1.94Zm1.284-.197c.789 0 1.2.195 1.419.411.217.214.414.616.414 1.4h2c0-1.098-.279-2.102-1.008-2.823-.727-.718-1.733-.988-2.825-.988v2Zm1.833 1.81v4.877h2V9.683h-2Zm1.682 4.146-.022-.02-1.364 1.462.022.02 1.364-1.462Zm-2.114-4.063-1.948.248.252 1.984 1.949-.248-.253-1.984Zm-1.945.247c-.698.087-1.395.256-1.885.637l1.228 1.579.013-.009a1.258 1.258 0 0 1 .218-.09c.159-.048.379-.095.673-.132l-.247-1.985Zm-1.885.637c-.594.462-.785 1.144-.785 1.802h2a.67.67 0 0 1 .03-.239c.003-.009.004-.008-.001 0l-.016.016-1.228-1.579Zm-.785 1.802c0 .678.294 1.261.771 1.67l1.3-1.52a.209.209 0 0 1-.056-.068.194.194 0 0 1-.015-.082h-2Zm.801 1.694c.485.384 1.065.567 1.727.567v-2c-.269 0-.397-.065-.487-.136l-1.24 1.57Zm1.727.567c.872 0 1.678-.29 2.291-.926l-1.44-1.388c-.183.19-.44.314-.851.314v2Zm2.272-.907c.639-.627.919-1.435.919-2.284h-2c0 .392-.118.658-.321.858l1.402 1.426Zm.919-2.284v-.744h-2v.744h2Zm-.318-.012.022-.021-1.364-1.463-.022.021 1.364 1.463Zm9.833 2.03h-1.284v2h1.284v-2Zm-.284 1v-1.282h-2v1.281h2Zm-1-2.282h-.022v2h.022v-2Zm-.874.476c-.398.648-.989.991-1.915.991v2c1.554 0 2.822-.648 3.619-1.943l-1.704-1.048Zm-1.915.991c-.76 0-1.278-.248-1.671-.683l-1.484 1.341c.803.889 1.878 1.342 3.155 1.342v-2Zm-1.671-.683c-.39-.431-.65-1.098-.65-2.057h-2c0 1.315.361 2.507 1.166 3.398l1.484-1.34Zm-.65-2.057c0-1.056.279-1.79.743-2.31l-1.492-1.332c-.865.97-1.251 2.219-1.251 3.642h2Zm.743-2.31c.45-.504 1.05-.782 1.932-.782v-2c-1.375 0-2.546.467-3.424 1.45l1.492 1.332Zm1.932-.782c.834 0 1.266.276 1.568.754l1.691-1.068c-.717-1.134-1.834-1.686-3.259-1.686v2Zm2.413 1.22h.022v-2h-.022v2Zm1.022-1v-4.63h-2v4.63h2Zm-1-3.63h1.284v-2h-1.284v2Zm.284-1V14.56h2V3.484h-2Zm2 11.077v-.02h-2v.02h2Zm-1.284-3.41v-1.116h-2v1.116h2Zm0-1.116a3.03 3.03 0 0 0-.982-2.28l-1.364 1.462c.235.219.346.468.346.819h2Zm-.982-2.28c-.636-.594-1.414-.89-2.298-.89v2c.4 0 .684.119.934.352l1.364-1.462Zm-2.298-.89c-1.03 0-1.95.371-2.609 1.17l1.543 1.272c.227-.275.547-.441 1.066-.441v-2Zm-2.609 1.17c-.624.758-.914 1.745-.914 2.848h2c0-.758.196-1.258.457-1.575l-1.543-1.272Zm-.914 2.848c0 1.025.27 1.945.866 2.677l1.551-1.263c-.246-.301-.417-.745-.417-1.414h-2Zm.879 2.692c.635.75 1.506 1.098 2.489 1.098v-2c-.477 0-.758-.149-.964-.391l-1.525 1.293Zm2.489 1.098c1.001 0 1.812-.358 2.464-1.025l-1.43-1.398c-.278.284-.574.422-1.034.422v2Zm2.481-1.042c.622-.669.954-1.515.954-2.5h-2c0 .502-.155.855-.418 1.137l1.464 1.363ZM129.2 3.585a2.884 2.884 0 0 0-1.317-.315v2c.159 0 .293.038.409.098l.908-1.783Zm-1.317-.315c-.652 0-1.303.206-1.769.751-.44.517-.582 1.187-.582 1.84h2c0-.4.091-.527.104-.542.004-.004.009-.01.031-.02a.607.607 0 0 1 .216-.03v-2Zm-2.351 2.591v1.157h2V5.86h-2Zm1 2.157h1.882v-2h-1.882v2Zm.882-1V8.03h2V7.017h-2Zm1 .013h-1.882v2h1.882v-2Zm-2.882 1v6.468h2V8.03h-2Zm1 5.468h-1.284v2h1.284v-2Zm-.284 1V8.03h-2v6.468h2Zm-1-7.468h-1.372v2h1.372v-2Zm-.372 1V7.017h-2V8.03h2Zm-1-.013h1.372v-2h-1.372v2Zm2.372-1v-1.22h-2v1.22h2Zm0-1.219c0-.523.154-.855.429-1.123l-1.397-1.432c-.699.682-1.032 1.549-1.032 2.555h2Zm.429-1.123c.278-.272.615-.419 1.139-.419v-2c-.981 0-1.84.308-2.536.987l1.397 1.432Zm1.139-.419c.35 0 .522.04.58.061l.7-1.873c-.385-.144-.832-.188-1.28-.188v2Zm-.07-.876v1.075h2V3.38h-2Zm0 1.075v.02h2v-.02h-2Zm6.845 2.98c-.467-.348-1.05-.446-1.573-.446v2c.148 0 .251.014.317.031.065.017.076.03.059.018l1.197-1.603Zm-1.573-.446c-.934 0-1.666.435-2.186 1.162l1.628 1.163c.188-.264.342-.325.558-.325v-2Zm-2.186 1.162c-.509.713-.718 1.597-.718 2.524h2c0-.643.146-1.082.346-1.361l-1.628-1.163Zm-.718 2.524v3.823h2v-3.823h-2Zm1 2.823h-1.283v2h1.283v-2Zm-.283 1v-7.48h-2v7.48h2Zm-1-6.48h1.283v-2h-1.283v2Zm.283-1v1.55h2v-1.55h-2Zm1 2.55h.023v-2h-.023v2Zm.969-.676c.13-.382.299-.61.482-.751l-1.219-1.586c-.57.438-.932 1.036-1.155 1.688l1.892.649Zm.482-.751c.226-.174.437-.248.675-.248v-2c-.737 0-1.367.257-1.894.662l1.219 1.586Zm.675-.248c.125 0 .228.008.307.02a.786.786 0 0 1 .137.028l.661-1.888c-.319-.112-.705-.16-1.105-.16v2Zm-.226-.896v1.24h2v-1.24h-2Zm1 .24h-.022v2h.022v-2Zm7.457 3.5c0 .967-.284 1.662-.789 2.162l1.408 1.421c.956-.947 1.381-2.194 1.381-3.583h-2Zm-.789 2.162c-.513.508-1.219.806-2.218.806v2c1.436 0 2.678-.447 3.626-1.385l-1.408-1.421Zm-2.218.806c-1.001 0-1.639-.278-2.129-.764l-1.409 1.42c.927.919 2.104 1.344 3.538 1.344v-2Zm-2.129-.764c-.489-.485-.767-1.143-.767-2.08h-2c0 1.378.43 2.58 1.358 3.5l1.409-1.42Zm-.767-2.08c0-1.037.288-1.729.788-2.224l-1.407-1.421c-.961.952-1.381 2.202-1.381 3.645h2Zm.788-2.224c.498-.493 1.216-.785 2.285-.785v-2c-1.454 0-2.729.41-3.692 1.364l1.407 1.421Zm2.285-.785c.991 0 1.638.285 2.073.731l1.433-1.395c-.894-.918-2.106-1.336-3.506-1.336v2Zm2.063.72c.458.485.745 1.174.745 2.165h2c0-1.406-.422-2.618-1.292-3.539l-1.453 1.374Zm1.439 2.206c0-1.104-.26-2.067-.905-2.82l-1.519 1.301c.24.28.424.723.424 1.52h2Zm-.919-2.835c-.677-.76-1.622-1.078-2.649-1.078v2c.61 0 .95.177 1.157.41l1.492-1.332Zm-2.649-1.078c-1.033 0-1.984.32-2.698 1.078l1.455 1.372c.26-.275.638-.45 1.243-.45v-2Zm-2.698 1.078c-.711.754-1.003 1.752-1.003 2.856h2c0-.756.195-1.205.458-1.484l-1.455-1.372Zm-1.003 2.856c0 1.125.304 2.052 1.003 2.794l1.455-1.372c-.275-.292-.458-.687-.458-1.422h-2Zm1.017 2.809c.693.705 1.6 1.063 2.662 1.063v-2c-.577 0-.954-.178-1.235-.465l-1.427 1.402Zm2.662 1.063c1.018 0 1.989-.313 2.671-1.077l-1.492-1.332c-.202.226-.56.41-1.179.41v2Zm2.671-1.077c.664-.743.919-1.741.919-2.816h-2c0 .786-.188 1.234-.411 1.484l1.492 1.332Zm14.617-.096h-1.284v2h1.284v-2Zm-.284 1V10.2h-2v4.298h2Zm0-4.298c0-.863-.124-1.794-.647-2.432l-1.547 1.268c.053.064.194.374.194 1.164h2Zm-.606-2.38c-.539-.754-1.404-.955-2.187-.955v2c.242 0 .389.032.471.063.069.026.083.048.088.055l1.628-1.162Zm-2.187-.955c-.878 0-1.625.382-2.178 1.081l1.568 1.242c.199-.251.382-.323.61-.323v-2Zm-2.178 1.081a3.625 3.625 0 0 0-.792 2.295h2c0-.416.124-.755.36-1.053l-1.568-1.242Zm-.792 2.295v4.278h2v-4.28h-2Zm1 3.278h-1.284v2h1.284v-2Zm-.284 1v-4.443h-2v4.443h2Zm0-4.443c0-.844-.167-1.665-.676-2.288-.541-.662-1.317-.923-2.139-.923v2c.396 0 .527.11.59.187.094.116.225.4.225 1.024h2Zm-2.815-3.211c-.869 0-1.601.373-2.15 1.006l1.511 1.31c.204-.235.401-.316.639-.316v-2Zm-2.169 1.029c-.522.639-.779 1.451-.779 2.347h2c0-.509.141-.854.328-1.083l-1.549-1.264Zm-.779 2.347v4.278h2v-4.28h-2Zm1 3.278h-1.284v2h1.284v-2Zm-.284 1V7.038h-2v7.48h2Zm-1-6.481h1.284v-2h-1.284v2Zm.284-1v1.178h2V7.038h-2Zm1 2.178h.022v-2h-.022v2Zm.867-.465c.393-.62.893-.899 1.634-.899v-2c-1.428 0-2.565.631-3.324 1.83l1.69 1.069Zm1.634-.899c.318 0 .618.09.879.256l1.077-1.685a3.624 3.624 0 0 0-1.956-.57v2Zm.879.256c.21.134.362.33.451.604l1.901-.62a3.078 3.078 0 0 0-1.275-1.67l-1.077 1.686Zm2.267.795c.423-.731.982-1.051 1.791-1.051v-2c-1.538 0-2.749.714-3.522 2.05l1.731 1Zm1.791-1.051c.694 0 1.041.192 1.238.418.22.254.418.739.418 1.64h2c0-1.144-.244-2.188-.909-2.952-.689-.792-1.67-1.106-2.747-1.106v2Zm1.656 2.058v4.609h2V9.91h-2Zm2 4.609v-.02h-2v.02h2Z" fill="#F2F2F2" fill-opacity=".8" mask="url(#c)"/></svg>